<?xml version="1.0" encoding="UTF-8"?>
<svg id="Layer_2" data-name="Layer 2" xmlns="http://www.w3.org/2000/svg" viewBox="0 0 676.95 384">
  <defs>
    <style>
      .cls-1 {
        fill: none;
      }

      .cls-2 {
        fill: #f4a031;
      }

      .cls-3 {
        fill: #f7bd3d;
      }

      .cls-4 {
        fill: #f7bd3b;
      }

      .cls-5 {
        fill: #f7b14b;
      }

      .cls-6 {
        fill: #eefbff;
      }

      .cls-7 {
        fill: #ffdede;
      }

      .cls-8, .cls-9, .cls-10 {
        fill: #e89176;
      }

      .cls-11 {
        fill: #ea3d90;
      }

      .cls-12 {
        fill: #fdc6a2;
      }

      .cls-13 {
        fill: #e59328;
      }

      .cls-14 {
        fill: #f04d6a;
      }

      .cls-15 {
        fill: #ffdbc7;
      }

      .cls-16, .cls-17, .cls-18, .cls-19, .cls-20, .cls-21, .cls-22 {
        fill: #fff;
      }

      .cls-23 {
        fill: #ffdbab;
      }

      .cls-24 {
        fill: #ffe8dc;
      }

      .cls-25 {
        fill: #ffbb59;
      }

      .cls-26 {
        fill: #ffc1b3;
      }

      .cls-27 {
        fill: #ffd097;
      }

      .cls-28 {
        fill: #f1665d;
      }

      .cls-29 {
        fill: #ff7dc7;
      }

      .cls-30 {
        fill: #7dc4ff;
      }

      .cls-31 {
        fill: #928f93;
      }

      .cls-32 {
        fill: #91dcdc;
      }

      .cls-33 {
        fill: #83c3db;
      }

      .cls-34 {
        fill: #b4e4f9;
      }

      .cls-35 {
        fill: #91052d;
      }

      .cls-36 {
        fill: #c0f3ff;
      }

      .cls-37 {
        fill: #8c7f93;
      }

      .cls-38 {
        fill: #ce7057;
      }

      .cls-39 {
        fill: #aeffcf;
      }

      .cls-40 {
        fill: #af143b;
      }

      .cls-41 {
        fill: #c0dbe2;
      }

      .cls-42 {
        fill: #d17e1c;
      }

      .cls-43 {
        fill: #df8a3a;
      }

      .cls-44 {
        fill: #d39021;
      }

      .cls-45 {
        fill: #c60c6e;
      }

      .cls-46 {
        fill: #113c47;
      }

      .cls-47 {
        fill: #12dd65;
      }

      .cls-48 {
        fill: #1b3c47;
      }

      .cls-49, .cls-50 {
        fill: #181828;
      }

      .cls-51 {
        fill: #1b1b2b;
      }

      .cls-52 {
        fill: #6f6372;
      }

      .cls-53 {
        fill: #63456b;
      }

      .cls-54 {
        fill: #5ba3ba;
      }

      .cls-55 {
        fill: #56c643;
      }

      .cls-56 {
        fill: #73c7e5;
      }

      .cls-57 {
        fill: #5ffd9f;
      }

      .cls-17, .cls-18, .cls-58, .cls-59, .cls-50, .cls-9, .cls-19, .cls-20, .cls-10, .cls-21, .cls-22, .cls-60 {
        isolation: isolate;
      }

      .cls-17, .cls-61 {
        opacity: .2;
      }

      .cls-18 {
        opacity: .7;
      }

      .cls-58 {
        fill: #b5e5e8;
      }

      .cls-58, .cls-59 {
        opacity: .8;
      }

      .cls-59 {
        fill: #dff5f7;
      }

      .cls-50 {
        opacity: .5;
      }

      .cls-9 {
        opacity: .49;
      }

      .cls-19 {
        opacity: .48;
      }

      .cls-20 {
        opacity: .55;
      }

      .cls-10 {
        opacity: .62;
      }

      .cls-21 {
        opacity: .61;
      }

      .cls-22, .cls-62 {
        opacity: .25;
      }

      .cls-60 {
        fill: #c08976;
        opacity: .39;
      }

      .cls-63 {
        opacity: .15;
      }
    </style>
  </defs>
  <g id="Layer_1-2" data-name="Layer 1">
    <g id="Layer_2-2" data-name="Layer 2">
      <g id="Layer_1-2" data-name="Layer 1-2">
        <path class="cls-3" d="M603.46,207.07h30.4v32.48c0,8.39-6.81,15.2-15.2,15.2h0c-8.39,0-15.2-6.81-15.2-15.2h0v-32.48h0Z"/>
        <path class="cls-49" d="M618.82,256.08c-9.07,0-16.41-7.35-16.42-16.42v-32.47c0-.67,.53-1.21,1.2-1.22,0,0,.01,0,.02,0h30.4c.67,0,1.22,.55,1.22,1.22v32.47c-.01,9.06-7.36,16.41-16.42,16.42Zm-14-47.68v31.26c0,7.73,6.27,14,14,14h0c7.73,0,14-6.27,14-14v-31.26h-28Z"/>
        <path class="cls-3" d="M585.19,168.9c-2.45-8.06-6.53-15.52-12-21.92,11-4.5,23.31-3.22,32.37,4.56"/>
        <path class="cls-19" d="M601.01,157.52c-2.43-8.05-19.31-10.2-28.95-9.36,11-4.5,23.31-3.22,32.37,4.56"/>
        <path class="cls-44" d="M574.54,146.18c.44,.51-1.37,1.19-.94,1.73,10.1-3.5,21.09-2.45,29.51,4.11l1.56-1.14c-9.01-7.74-19.05-9.21-30.13-4.7Z"/>
        <path class="cls-49" d="M590.74,164.39l-5.78,4.61c-2.16-8.13-5.97-15.72-11.2-22.31h0c6.8,4.69,12.58,10.71,16.98,17.7Z"/>
        <path class="cls-49" d="M586.17,159c-.32,0-.62-.17-.8-.44-4.91-8.05-11.82-9.68-11.93-9.68-.48-.11-.8-.58-.71-1.07,.14-.47,.59-.77,1.08-.71,.31,.07,7.79,1.84,13.11,10.54,.27,.43,.14,1-.3,1.27,0,0,0,0,0,0h0c-.14,.06-.3,.1-.45,.09Z"/>
        <path class="cls-16" d="M588.74,149.94c-.83-.37-1.72-.58-2.63-.62-.17,0-.3-.14-.29-.31h0c.01-.16,.15-.29,.31-.29,.99,.04,1.95,.26,2.86,.65,.16,.07,.23,.25,.16,.41,0,0,0,0,0,0-.07,.16-.25,.23-.41,.16h0Z"/>
        <ellipse class="cls-21" cx="581.68" cy="148.44" rx="1.08" ry="1.35" transform="translate(421.99 727.14) rotate(-88.89)"/>
        <path class="cls-49" d="M584.63,170.12c-.54,0-1.01-.35-1.16-.87-2.38-7.89-6.37-15.21-11.72-21.48-.25-.3-.34-.69-.25-1.07,.09-.38,.36-.69,.72-.84,11.92-4.87,24.49-3.09,33.63,4.76,.51,.43,.57,1.2,.13,1.71,0,0,0,0,0,0-.44,.51-1.21,.57-1.72,.13-8-6.89-19-8.69-29.56-4.94,5.02,6.22,8.79,13.35,11.1,21,.19,.64-.17,1.31-.81,1.51,0,0,0,0,0,0-.11,.05-.23,.08-.35,.09Z"/>
        <g class="cls-61">
          <path class="cls-46" d="M645.34,180.89c-1.48,0-2.68-1.2-2.69-2.68v-15.21c0-1.49,1.2-2.69,2.69-2.69s2.69,1.2,2.69,2.69v15.22c.01,1.48-1.18,2.69-2.66,2.7,0,0-.01,0-.02,0v-.03Z"/>
          <path class="cls-46" d="M645.34,158.72c-1.49,0-2.69-1.2-2.69-2.69h0v-5.69c0-1.49,1.2-2.69,2.69-2.69s2.69,1.2,2.69,2.69v5.66c.02,1.48-1.16,2.7-2.64,2.72-.02,0-.03,0-.05,0Z"/>
        </g>
        <path class="cls-3" d="M650.14,160.47c2.42-8.06,6.48-15.52,11.94-21.92-11-4.5-23.32-3.23-32.38,4.56"/>
        <path class="cls-19" d="M631.23,154.46c2.42-8.05,18.52-16.64,30.85-15.91-11-4.5-23.32-3.23-32.38,4.56"/>
        <path class="cls-16" d="M630.08,149.4c2.42-8.05,22.41-14.4,32.37-10.48-11-4.49-23.31-3.22-32.37,4.57"/>
        <path class="cls-49" d="M646.26,151.07l5.14,7.34c2.15-8.13,5.86-14,11.09-20.56l.1-1.75c-6.78,4.68-11.97,7.99-16.33,14.97Z"/>
        <path class="cls-3" d="M615.36,142.72h6.12c19.59,0,35.47,15.87,35.48,35.46h0c0,19.6-15.87,35.48-35.46,35.49h-6.14c-19.59,0-35.47-15.87-35.48-35.46v-.02h0c0-19.59,15.88-35.47,35.47-35.47h.01Z"/>
        <path class="cls-16" d="M615.36,142.72h6.12c19.59,0,35.47,15.87,35.48,35.46h0c-4.23-15.43-15.3-31.13-34.89-31.13h-6.11c-19.59,0-29.82,13.42-36.06,31.14h0c0-19.59,15.87-35.46,35.46-35.47Z"/>
        <path class="cls-43" d="M657.53,177.76c0,19.59-15.88,35.47-35.47,35.47h-6.1c-19.59,0-35.47-15.88-35.47-35.47,0-.76,0-1.52,.07-2.27,1.19,18.7,16.73,33.25,35.47,33.21h6.13c18.71,0,34.21-14.53,35.4-33.21-.05,.75-.03,1.51-.03,2.27Z"/>
        <path class="cls-49" d="M652.73,197.23c-7.41-1.75-6.87-.88-13.6-8.53,0,0-2,9.61,5.58,15.2l8.02-6.67Z"/>
        <path class="cls-49" d="M646.37,202.39s-5.81-.82-11.32-6.66c0,0-1.25,7.92,4.41,12.09l6.91-5.43Z"/>
        <path class="cls-49" d="M666.26,186.94c-.31-.01-.59-.17-.77-.42-1.77-2.68-3.45-2.93-6.26-3.32-1.26-.16-2.51-.39-3.74-.69-1.76-.44-3.56-.74-5.37-.89-.49-.08-.85-.5-.84-1,.04-.5,.47-.88,.97-.84,0,0,.02,0,.03,0h0c1.91,.15,3.81,.47,5.67,.93,1.17,.29,2.35,.51,3.55,.66,2.85,.41,5.31,.75,7.52,4.12,.29,.43,.18,1-.25,1.29,0,0,0,0-.01,0-.15,.1-.33,.15-.51,.16h.01Z"/>
        <path class="cls-49" d="M676.01,196.14c-.31,0-.61-.16-.78-.42-1.75-2.66-8.95-5.77-19.74-8.6-1.76-.43-3.56-.73-5.37-.88-.51-.11-.83-.6-.73-1.11,.09-.43,.46-.74,.9-.75,1.91,.16,3.81,.48,5.67,.94,8.06,2.09,18.27,5.38,20.83,9.34,.29,.42,.18,.99-.23,1.28,0,0-.01,0-.02,.01h0c-.15,.12-.34,.19-.53,.19Z"/>
        <path class="cls-49" d="M664.41,198.15h-.16c-3.06-.43-5.89-1.89-8-4.15-1.13-1.15-2.43-2.12-3.85-2.88-1.63-.8-3.33-1.47-5.07-2-.48-.15-.75-.67-.6-1.15,0,0,0,0,0,0h0c.16-.48,.67-.75,1.16-.6,1.84,.58,3.64,1.3,5.38,2.15,1.57,.85,3.02,1.92,4.29,3.17,1.86,1.71,3.47,3.23,7,3.68,.51,.1,.84,.6,.73,1.11-.09,.42-.45,.73-.87,.75v-.07Z"/>
        <path class="cls-49" d="M570.88,186.94c.31-.01,.6-.17,.78-.42,1.76-2.68,3.45-2.93,6.25-3.32,1.26-.16,2.51-.39,3.74-.69,1.76-.44,3.56-.74,5.37-.89,.49-.08,.85-.5,.84-1-.04-.5-.47-.88-.97-.84,0,0-.02,0-.03,0h0c-1.91,.15-3.81,.47-5.67,.93-1.17,.29-2.35,.51-3.55,.66-2.85,.41-5.31,.75-7.52,4.12-.29,.43-.18,1,.25,1.29,0,0,0,0,.01,0,.15,.1,.33,.15,.51,.16h-.01Z"/>
        <path class="cls-49" d="M561.13,196.14c.31,0,.61-.16,.78-.42,1.75-2.66,8.95-5.77,19.74-8.6,1.76-.43,3.56-.73,5.37-.88,.51-.11,.83-.6,.73-1.11-.09-.43-.46-.74-.9-.75-1.91,.16-3.81,.48-5.67,.94-8.06,2.09-18.27,5.38-20.83,9.34-.29,.42-.18,.99,.23,1.28,0,0,.01,0,.02,.01h0c.15,.12,.34,.19,.53,.19Z"/>
        <path class="cls-49" d="M572.73,198.15h.16c3.06-.43,5.89-1.89,8-4.15,1.14-1.15,2.44-2.12,3.86-2.88,1.63-.8,3.32-1.47,5.06-2,.48-.15,.75-.67,.6-1.15,0,0,0,0,0,0h0c-.16-.48-.67-.75-1.16-.6-1.84,.58-3.64,1.3-5.38,2.15-1.57,.85-3.02,1.92-4.29,3.17-1.86,1.71-3.46,3.23-7,3.68-.51,.1-.84,.6-.73,1.11,.09,.42,.45,.73,.87,.75v-.07Z"/>
        <rect class="cls-16" x="591.68" y="158.31" width="23.8" height="28.97" rx="11.89" ry="11.89"/>
        <circle class="cls-49" cx="603.31" cy="173.72" r="8.79"/>
        <circle class="cls-17" cx="605.8" cy="177.47" r="2.22"/>
        <ellipse class="cls-16" cx="601.49" cy="170.34" rx="4.45" ry="3.39"/>
        <rect class="cls-16" x="622.78" y="158.31" width="23.8" height="28.97" rx="11.89" ry="11.89"/>
        <circle class="cls-49" cx="634.41" cy="173.72" r="8.79"/>
        <circle class="cls-17" cx="636.9" cy="177.47" r="2.22"/>
        <ellipse class="cls-16" cx="632.58" cy="170.34" rx="4.45" ry="3.39"/>
        <path class="cls-16" d="M602.7,152.19c1.81-.86,3.71-1.52,5.66-1.95,1.95-.43,3.94-.66,5.93-.69,.35,0,.63,.27,.64,.62,0,.33-.26,.61-.59,.63-1.9,.15-3.78,.49-5.61,1-1.83,.48-3.61,1.13-5.33,1.92-.42,.18-.9,0-1.09-.42-.2-.41-.04-.9,.37-1.1,0,0,.01,0,.02-.01Z"/>
        <ellipse class="cls-16" cx="618.53" cy="150.09" rx="1.08" ry="1.35" transform="translate(456.48 765.6) rotate(-88.89)"/>
        <path class="cls-49" d="M621.48,214.89h-6.12c-20.27,.33-36.97-15.82-37.3-36.09-.33-20.27,15.82-36.97,36.09-37.3,.4,0,.81,0,1.21,0h6.12c20.27-.33,36.97,15.82,37.3,36.09,.33,20.27-15.82,36.97-36.09,37.3-.4,0-.81,0-1.21,0Zm-6.12-71c-18.92,0-34.26,15.34-34.26,34.26s15.34,34.26,34.26,34.26h6.12c18.92,0,34.25-15.35,34.25-34.27,0-18.91-15.34-34.24-34.25-34.25h-6.12Z"/>
        <path class="cls-49" d="M652.31,160.22c-.09,0-.19,0-.28,0-.65-.15-1.06-.8-.91-1.45,0,0,0,0,0-.01,1.56-7.5,4.6-14.61,8.94-20.92-10.81-3.06-21.62-.57-29.18,6.83-.47,.48-1.24,.49-1.73,.02s-.49-1.24-.02-1.73c0-.01,.02-.02,.03-.03,8.61-8.41,21-11,33.26-6.91,.64,.23,.98,.94,.75,1.59-.04,.11-.09,.21-.16,.3-4.57,6.11-7.51,12.71-9.53,21.4-.14,.54-.63,.91-1.18,.91Z"/>
        <ellipse class="cls-43" cx="624.9" cy="205.15" rx="2.59" ry=".97"/>
        <circle class="cls-43" cx="620" cy="205.36" r="1"/>
        <ellipse class="cls-16" cx="644.16" cy="145.01" rx="1.82" ry=".89" transform="translate(13.8 341.51) rotate(-30)"/>
        <circle class="cls-16" cx="646.26" cy="146.64" r=".41"/>
        <path class="cls-49" d="M617.72,185.47c-.96,0-1.75,.76-1.75,1.73,0,.43,.15,.84,.43,1.16,.79,.87,1.93,1.91,3.2,1.91s2.41-1,3.19-1.91c.64-.72,.57-1.82-.16-2.46,0,0,0,0,0,0-.31-.26-.7-.41-1.1-.43h-3.81Z"/>
        <rect class="cls-41" x="376.04" y="323.79" width="23.87" height="2.17"/>
        <polygon class="cls-41" points="402.23 298.71 402.02 301.15 372.79 301.15 372.58 298.71 402.23 298.71"/>
        <path class="cls-49" d="M396.52,346.71h-17.69c-1.65,0-3.03-1.27-3.17-2.92l-3.81-46.08c-.05-.55,.36-1.04,.91-1.09,.03,0,.06,0,.09,0h29.65c.28,0,.55,.11,.74,.32,.2,.21,.29,.49,.27,.77l-2.55,30.36c-.04,.55-.53,.96-1.08,.92-.55-.04-.96-.53-.92-1.08l2.42-29.28h-27.42l3.73,45c.05,.6,.55,1.07,1.16,1.07h17.69c.61,0,1.11-.47,1.16-1.07l.93-11.2c.04-.55,.52-.96,1.07-.92,0,0,.01,0,.02,0,.55,.04,.96,.52,.92,1.07,0,0,0,.01,0,.02l-.93,11.19c-.15,1.65-1.53,2.92-3.19,2.92Z"/>
        <rect class="cls-16" x="368.15" y="293.28" width="39.06" height="4.7"/>
        <path class="cls-49" d="M404.85,299.16h-34.35c-1.83,0-3.32-1.49-3.32-3.32s1.49-3.32,3.32-3.32h34.35c1.83,0,3.32,1.49,3.32,3.32s-1.49,3.32-3.32,3.32Zm-34.35-4.7c-.76,0-1.38,.62-1.38,1.38s.62,1.38,1.38,1.38h34.35c.76,0,1.38-.62,1.38-1.38s-.62-1.38-1.38-1.38h-34.35Z"/>
        <path class="cls-49" d="M373.76,294.18h0c-.4-.02-.7-.36-.68-.76,0,0,0,0,0,0,0-.22,.36-5.38,4.8-7.07,.37-.15,.8,.03,.95,.41,.03,.09,.05,.18,.05,.27v6c0,.4-.32,.72-.72,.72s-.72-.32-.72-.72v-4.84c-2.67,1.7-2.9,5.28-2.91,5.32-.02,.39-.35,.69-.75,.67,0,0-.02,0-.02,0Z"/>
        <circle class="cls-16" cx="392.15" cy="305.08" r=".2"/>
        <circle class="cls-41" cx="394.26" cy="301.76" r="1.56"/>
        <circle class="cls-41" cx="397.34" cy="304.44" r=".44"/>
        <circle class="cls-41" cx="398.53" cy="301.89" r=".41"/>
        <circle class="cls-41" cx="391.37" cy="301.11" r=".98"/>
        <circle class="cls-41" cx="394.56" cy="307.28" r=".37"/>
        <polygon class="cls-5" points="370.91 305.89 372.18 322.52 403.59 322.52 405.04 305.89 370.91 305.89"/>
        <path class="cls-49" d="M403.41,324.07h-31.45c-.53,0-.96-.41-1-.93l-1.26-16.63c-.04-.55,.37-1.03,.92-1.08,.03,0,.06,0,.08,0h34.12c.28,0,.56,.11,.75,.32,.19,.21,.29,.49,.26,.77l-1.45,16.63c-.04,.51-.46,.91-.97,.92Zm-30.48-2h29.56l1.27-14.62h-31.94l1.11,14.62Z"/>
        <path class="cls-49" d="M381.01,311.24h-9c-.26-.04-.43-.28-.4-.53,.03-.21,.19-.37,.4-.4h9c.26-.04,.5,.14,.53,.4s-.14,.5-.4,.53c-.05,0-.09,0-.14,0Z"/>
        <ellipse class="cls-18" cx="378.21" cy="316.8" rx="3.68" ry="2.89" transform="translate(-113.24 360.22) rotate(-45)"/>
        <ellipse class="cls-18" cx="383.97" cy="314.43" rx="1.44" ry="1.14" transform="translate(-109.87 363.6) rotate(-45)"/>
        <rect class="cls-32" x="210.09" y="327.96" width="112.38" height="17.46"/>
        <rect class="cls-54" x="210.09" y="327.96" width="112.38" height="4.12"/>
        <path class="cls-49" d="M322.48,346.88h-112.39c-.8,0-1.45-.65-1.45-1.45,0,0,0,0,0-.01v-17.42c0-.8,.65-1.45,1.45-1.45h112.39c.8-.02,1.46,.62,1.48,1.42,0,.01,0,.02,0,.03v17.46c-.02,.8-.68,1.44-1.48,1.42h0Zm-110.93-2.88h109.47v-14.58h-109.47v14.58Z"/>
        <path class="cls-5" d="M115.65,353.62H632.35c0,16.7-13.54,30.24-30.24,30.24H145.9c-16.7,0-30.24-13.54-30.24-30.24h-.01Z"/>
        <path class="cls-42" d="M631.55,360.3c-.31,1.36-.72,2.7-1.23,4H117.69c-.51-1.3-.92-2.64-1.23-4H631.55Z"/>
        <path class="cls-49" d="M602.11,384H145.9c-17.33-.02-31.38-14.07-31.4-31.4,.06-.64,.62-1.11,1.26-1.05,.56,.05,1,.49,1.05,1.05,.02,16.06,13.03,29.07,29.09,29.09h456.21c16.06-.02,29.07-13.03,29.09-29.09,0-.64,.51-1.15,1.15-1.15s1.15,.51,1.15,1.15h0c-.02,17.34-14.06,31.39-31.39,31.41Z"/>
        <rect class="cls-52" x="568.45" y="220.97" width="95.09" height="124.14" rx="16.2" ry="16.2"/>
        <path class="cls-53" d="M595.78,344.38h-11.14c-8.94,0-16.19-7.25-16.19-16.19h0v-91.74c0-8.94,7.24-16.19,16.18-16.2h11.15c-8.95,0-16.2,7.25-16.2,16.2h0v91.74c0,8.94,7.25,16.19,16.19,16.19h.01Z"/>
        <circle class="cls-50" cx="615.99" cy="254.16" r="10.16"/>
        <circle class="cls-50" cx="615.99" cy="254.16" r="7.19"/>
        <path class="cls-49" d="M615.96,265.54c-6.28,0-11.38-5.1-11.38-11.38s5.1-11.38,11.38-11.38c6.29,0,11.38,5.09,11.38,11.38-.01,6.28-5.1,11.37-11.38,11.38Zm0-20.33c-4.94,.03-8.93,4.06-8.9,9,.03,4.94,4.06,8.93,9,8.9,4.92-.03,8.9-4.03,8.9-8.95-.03-4.95-4.05-8.95-9-8.95Z"/>
        <circle class="cls-50" cx="615.99" cy="297.71" r="22.14"/>
        <circle class="cls-50" cx="615.99" cy="297.71" r="15.65"/>
        <path class="cls-49" d="M615.96,321.4c-13.08,0-23.69-10.61-23.69-23.69s10.61-23.69,23.69-23.69,23.69,10.61,23.69,23.69c-.02,13.08-10.61,23.67-23.69,23.69Zm0-44.28c-11.37,0-20.59,9.22-20.59,20.59s9.22,20.59,20.59,20.59c11.37,0,20.59-9.22,20.59-20.59-.01-11.37-9.22-20.58-20.59-20.59Z"/>
        <path class="cls-49" d="M590.19,236.47c-2.06,0-3.73-1.66-3.74-3.72,0-2.06,1.66-3.73,3.72-3.74,2.06,0,3.73,1.66,3.74,3.72v.02c0,2.05-1.67,3.71-3.72,3.72Zm0-5.59c-1.03,0-1.87,.83-1.88,1.86,0,1.03,.83,1.87,1.86,1.88,1.03,0,1.87-.83,1.88-1.86h0c0-1.04-.83-1.87-1.86-1.88Z"/>
        <path class="cls-49" d="M641.8,236.47c-2.06,0-3.73-1.66-3.74-3.72,0-2.06,1.66-3.73,3.72-3.74,2.06,0,3.73,1.66,3.74,3.72v.02c0,2.05-1.67,3.71-3.72,3.72Zm0-5.59c-1.03,0-1.87,.83-1.88,1.86,0,1.03,.83,1.87,1.86,1.88,1.03,0,1.87-.83,1.88-1.86h0c0-1.04-.83-1.87-1.86-1.88Z"/>
        <circle class="cls-14" cx="615.99" cy="229.95" r="3.54"/>
        <path class="cls-49" d="M615.96,234.42c-2.47,0-4.47-2.01-4.46-4.48,0-2.47,2.01-4.47,4.48-4.46,2.46,0,4.46,2.01,4.46,4.47s-2,4.47-4.47,4.47c0,0,0,0-.01,0Zm0-7.08c-1.44,0-2.61,1.17-2.61,2.61,0,1.44,1.17,2.61,2.61,2.61,1.44,0,2.61-1.17,2.61-2.61h0c0-1.44-1.17-2.61-2.61-2.61Z"/>
        <path class="cls-49" d="M590.19,337.61c-2.05,0-3.72-1.67-3.72-3.72s1.67-3.72,3.72-3.72c2.05,0,3.72,1.67,3.72,3.72h0c0,2.05-1.67,3.71-3.72,3.72Zm0-5.58c-1.03,0-1.86,.83-1.86,1.86,0,1.03,.83,1.86,1.86,1.86s1.86-.83,1.86-1.86h0c.02-1.03-.8-1.87-1.83-1.89-.01,0-.02,0-.03,0v.03Z"/>
        <path class="cls-49" d="M641.8,337.61c-2.05,0-3.72-1.67-3.72-3.72s1.67-3.72,3.72-3.72c2.05,0,3.72,1.67,3.72,3.72h0c0,2.05-1.67,3.71-3.72,3.72Zm0-5.58c-1.03,0-1.86,.83-1.86,1.86,0,1.03,.83,1.86,1.86,1.86s1.86-.83,1.86-1.86h0c.02-1.03-.8-1.87-1.83-1.89-.01,0-.02,0-.03,0v.03Z"/>
        <path class="cls-53" d="M579.94,271.47h0c1.2,0,2.18,.98,2.18,2.18v14.73c0,1.2-.98,2.18-2.18,2.18h0c-1.2,0-2.18-.98-2.18-2.18v-14.73c0-1.2,.98-2.18,2.18-2.18Z"/>
        <path class="cls-31" d="M660.05,248.02h0c1.2,0,2.18,.98,2.18,2.18v14.73c0,1.2-.98,2.18-2.18,2.18h0c-1.2,0-2.18-.98-2.18-2.18v-14.73c0-1.2,.98-2.18,2.18-2.18Z"/>
        <rect class="cls-31" x="657.87" y="308.2" width="4.36" height="19.09" rx="1.62" ry="1.62"/>
        <path class="cls-49" d="M647.34,346.66h-62.69c-9.8-.01-17.74-7.95-17.75-17.75v-91.74c.01-9.8,7.95-17.74,17.75-17.75h62.69c9.8,.01,17.74,7.95,17.75,17.75v91.74c-.01,9.8-7.95,17.74-17.75,17.75Zm-62.69-124.13c-8.1-.02-14.67,6.53-14.69,14.63h0v91.75c0,8.09,6.56,14.64,14.65,14.65h62.69c8.09,0,14.65-6.56,14.66-14.65v-91.74c-.01-8.08-6.56-14.63-14.64-14.64h-62.67Z"/>
        <rect class="cls-52" x="92.98" y="220.97" width="95.09" height="124.14" rx="16.2" ry="16.2"/>
        <path class="cls-53" d="M120.31,344.38h-11.13c-8.94,.02-16.2-7.22-16.22-16.16,0-.01,0-.02,0-.03v-91.74c0-8.95,7.25-16.2,16.2-16.2h11.13c-8.95,0-16.2,7.25-16.2,16.2v91.74c0,8.94,7.25,16.19,16.19,16.19,.01,0,.02,0,.03,0Z"/>
        <circle class="cls-50" cx="140.53" cy="254.16" r="10.16"/>
        <circle class="cls-50" cx="140.53" cy="254.16" r="7.19"/>
        <path class="cls-49" d="M140.53,265.54c-6.28-.03-11.36-5.14-11.33-11.43,.03-6.28,5.14-11.36,11.43-11.33,6.27,.03,11.33,5.11,11.33,11.38,0,6.29-5.11,11.39-11.4,11.38-.01,0-.02,0-.03,0Zm0-20.33c-4.94,0-8.95,4-8.96,8.94s4,8.95,8.94,8.96,8.95-4,8.96-8.94h0c-.03-4.94-4.01-8.93-8.94-8.96Z"/>
        <circle class="cls-50" cx="140.53" cy="297.71" r="22.14"/>
        <circle class="cls-50" cx="140.53" cy="297.71" r="15.65"/>
        <path class="cls-49" d="M140.53,321.4c-13.08,0-23.69-10.61-23.69-23.69,0-13.08,10.61-23.69,23.69-23.69s23.69,10.61,23.69,23.69c-.02,13.08-10.61,23.67-23.69,23.69Zm0-44.28c-11.37,0-20.59,9.21-20.6,20.58,0,11.37,9.21,20.59,20.58,20.6,11.37,0,20.59-9.21,20.6-20.58h0c-.01-11.37-9.22-20.58-20.58-20.6Z"/>
        <path class="cls-49" d="M114.72,236.47c-2.06,0-3.73-1.66-3.74-3.72,0-2.06,1.66-3.73,3.72-3.74,2.06,0,3.73,1.66,3.74,3.72,0,0,0,.01,0,.02,0,2.05-1.67,3.71-3.72,3.72Zm0-5.59c-1.03,0-1.87,.83-1.88,1.86s.83,1.87,1.86,1.88c1.03,0,1.87-.83,1.88-1.86,0,0,0,0,0,0,0-1.03-.83-1.86-1.86-1.87Z"/>
        <path class="cls-49" d="M166.33,236.47c-2.06,0-3.73-1.67-3.73-3.73,0-2.06,1.67-3.73,3.73-3.73,2.06,0,3.73,1.67,3.73,3.73,0,0,0,0,0,0,0,2.06-1.67,3.72-3.73,3.72Zm0-5.59c-1.03,0-1.87,.83-1.88,1.86s.83,1.87,1.86,1.88c1.03,0,1.87-.83,1.88-1.86,0,0,0,0,0,0,0-1.03-.83-1.86-1.86-1.87Z"/>
        <path class="cls-49" d="M114.72,337.61c-2.05,0-3.72-1.67-3.72-3.72s1.67-3.72,3.72-3.72,3.72,1.67,3.72,3.72c0,2.05-1.67,3.71-3.72,3.72Zm0-5.58c-1.03,0-1.86,.83-1.86,1.86s.83,1.86,1.86,1.86,1.86-.83,1.86-1.86h0c.02-1.03-.8-1.87-1.83-1.89-.01,0-.02,0-.03,0v.03Z"/>
        <path class="cls-49" d="M166.33,337.61c-2.05,0-3.72-1.68-3.71-3.73s1.68-3.72,3.73-3.71c2.05,0,3.71,1.67,3.71,3.72,0,2.06-1.67,3.72-3.73,3.72Zm0-5.58c-1.03,0-1.86,.83-1.86,1.86s.83,1.86,1.86,1.86,1.86-.83,1.86-1.86h0c.02-1.03-.8-1.87-1.83-1.89-.01,0-.02,0-.03,0v.03Z"/>
        <path class="cls-53" d="M104.47,271.47h0c1.2,0,2.18,.98,2.18,2.18v14.73c0,1.2-.98,2.18-2.18,2.18h0c-1.2,0-2.18-.98-2.18-2.18v-14.73c0-1.2,.98-2.18,2.18-2.18Z"/>
        <rect class="cls-31" x="182.4" y="248.02" width="4.36" height="19.09" rx="1.62" ry="1.62"/>
        <rect class="cls-31" x="182.4" y="308.2" width="4.36" height="19.09" rx="1.62" ry="1.62"/>
        <path class="cls-49" d="M171.87,346.66h-62.69c-9.8-.01-17.74-7.95-17.75-17.75v-91.74c.01-9.8,7.95-17.74,17.75-17.75h62.69c9.8,.01,17.74,7.95,17.75,17.75v91.74c-.01,9.8-7.95,17.74-17.75,17.75Zm-62.69-124.13c-8.08,.01-14.63,6.56-14.64,14.64v91.74c0,8.08,6.56,14.64,14.64,14.65h62.69c8.09,0,14.64-6.56,14.65-14.65v-91.74c-.01-8.08-6.57-14.63-14.65-14.64h-62.69Z"/>
        <path class="cls-33" d="M331.17,343.91c-.66-9.92,6.84-18.5,16.76-19.16s18.5,6.84,19.16,16.76c.05,.8,.05,1.6,0,2.4"/>
        <path class="cls-36" d="M352.37,326.07c-9.02,1.1-15.81,8.75-15.82,17.84h-4.29c0-9.94,8.06-18,18-18,.71,0,1.41,.06,2.11,.16Z"/>
        <path class="cls-49" d="M367.09,345.15c-.68,0-1.23-.56-1.23-1.24,0-3.24-.94-6.41-2.71-9.12-.38-.57-.21-1.34,.36-1.72,.57-.38,1.34-.21,1.72,.36h0c2.03,3.12,3.11,6.76,3.1,10.48,0,.68-.56,1.24-1.24,1.24Z"/>
        <path class="cls-49" d="M331.17,345.15c-.68,0-1.24-.56-1.24-1.24-.01-10.6,8.58-19.21,19.18-19.22,4.37,0,8.62,1.48,12.03,4.22,.56,.4,.69,1.17,.3,1.73s-1.17,.69-1.73,.3c-.04-.03-.08-.06-.12-.1-2.96-2.39-6.66-3.68-10.46-3.67-9.24,.01-16.72,7.49-16.73,16.73,0,.68-.55,1.24-1.23,1.25h0Z"/>
        <path class="cls-8" d="M488.9,54.37c-.28,14.32-12.12,25.71-26.44,25.43-13.93-.27-25.15-11.5-25.43-25.43,0-14.33,11.61-27.18,25.93-27.18s25.94,12.81,25.94,27.18Z"/>
        <path class="cls-38" d="M487.62,55.17c-.05,1.88-.3,3.75-.75,5.57h-1.16c-13.7,.02-26.85-5.43-36.52-15.13-2.56-2.56-4.84-5.38-6.82-8.42,.72-.81,1.5-1.58,2.32-2.29,1.38,1.81,2.89,3.53,4.5,5.14,9.67,9.7,22.82,15.15,36.52,15.13h1.91Z"/>
        <path class="cls-49" d="M462.96,81.67c-10.03,0-19.24-5.52-24-14.35-.36-.66-.11-1.49,.55-1.85,.66-.36,1.49-.11,1.85,.56,6.45,11.95,21.36,16.4,33.31,9.95,7.94-4.29,12.9-12.59,12.9-21.61,0-14-11.26-25.82-24.58-25.82s-24.57,11.82-24.57,25.82c0,2.15,.28,4.29,.83,6.37,.19,.73-.24,1.47-.96,1.67-.73,.19-1.47-.24-1.67-.97h0c-.62-2.31-.93-4.68-.93-7.07,0-15.48,12.5-28.55,27.3-28.55s27.31,13.07,27.31,28.55c-.02,15.08-12.26,27.3-27.34,27.3Z"/>
        <path class="cls-8" d="M521.84,72.42c0,14.33,11.61,25.94,25.94,25.94s25.94-11.61,25.94-25.94-11.61-27.18-25.94-27.18-25.94,12.85-25.94,27.18Z"/>
        <path class="cls-38" d="M523.12,73.22c.05,1.88,.3,3.75,.76,5.57h1.16c17.5-.01,33.8-8.87,43.33-23.55-.72-.79-1.49-1.54-2.31-2.24-1.39,1.81-4.91,.48-6.52,2.09-9.34,9.35-20.24,18.18-34.5,18.18l-1.92-.05Z"/>
        <path class="cls-49" d="M547.78,99.72c-15.07-.02-27.28-12.23-27.3-27.3,0-15.48,12.5-28.55,27.3-28.55s27.3,13.07,27.3,28.55c0,2.39-.31,4.77-.92,7.08-.25,.72-1.02,1.1-1.74,.85-.65-.22-1.03-.89-.9-1.56,.56-2.08,.84-4.22,.84-6.37,0-14-11.26-25.82-24.58-25.82s-24.57,11.82-24.57,25.82c0,13.58,11.02,24.57,24.6,24.56,9.03,0,17.33-4.96,21.61-12.9,.36-.66,1.18-.91,1.85-.56,.66,.36,.91,1.18,.55,1.85-4.76,8.84-14,14.35-24.04,14.35Z"/>
        <path class="cls-25" d="M450.13,338.66l-52.1,11.16v-95c0-14.39,11.65-26.05,26.04-26.06h0c14.39,0,26.05,11.66,26.05,26.05h0s0,83.85,0,83.85Z"/>
        <path class="cls-23" d="M426.62,228.91c-13.13,1.52-23.02,12.65-23,25.87v93.73l-6.15,1.31v-95c0-14.39,11.66-26.05,26.05-26.05h.01c1.03-.02,2.06,.03,3.09,.14Z"/>
        <path class="cls-49" d="M398.03,351c-.28,0-.55-.09-.77-.27-.28-.23-.45-.58-.45-.95v-95c0-15.06,12.21-27.27,27.27-27.27s27.27,12.21,27.27,27.27v83.88c0,.59-.42,1.08-1,1.19l-52.07,11.15c-.08,0-.17,0-.25,0Zm26.05-121.1c-13.71,.02-24.82,11.13-24.83,24.84v93.54l49.71-10.6v-82.9c-.01-13.73-11.15-24.85-24.88-24.84h0v-.04Z"/>
        <path class="cls-25" d="M512.54,199h0c23.26,0,42.11,18.85,42.11,42.11v111.5h-142.59v-53.13c0-55.49,44.99-100.48,100.48-100.48h0Z"/>
        <path class="cls-2" d="M554.51,241.9h0v106.48h-10.55v-96c.03-5.8,4.75-10.49,10.55-10.48Z"/>
        <path class="cls-23" d="M517.32,199.22c-52.73,3.6-93.66,47.41-93.67,100.26v53.13h-11.2v-53.13c0-55.5,45-100.49,100.5-100.48h.01c1.46,0,2.91,.07,4.36,.22Z"/>
        <path class="cls-49" d="M554.65,353.83h-142.59c-.67,0-1.21-.53-1.22-1.2,0,0,0-.01,0-.02v-53.13c.06-56.14,45.56-101.64,101.7-101.7,23.92,.02,43.3,19.4,43.33,43.32v111.51c0,.67-.55,1.22-1.22,1.22h0Zm-141.37-2.44h140.15v-110.29c-.03-22.57-18.32-40.86-40.89-40.89-54.8,.07-99.2,44.47-99.26,99.27v51.91Z"/>
        <rect class="cls-25" x="531.01" y="226.8" width="41.81" height="115.09" rx="20.9" ry="20.9"/>
        <path class="cls-23" d="M555.52,341.78c-.72,.07-1.44,.11-2.18,.11-11.54,0-20.89-9.35-20.9-20.89v-73.3c0-11.54,9.36-20.9,20.9-20.9h0c.74,0,1.46,0,2.18,.11-10.64,1.12-18.73,10.09-18.73,20.79v73.3c.01,10.7,8.09,19.66,18.73,20.78Z"/>
        <path class="cls-49" d="M551.96,343.11c-12.22,0-22.14-9.89-22.16-22.11v-73.3c0-12.22,9.92-22.11,22.14-22.1,12.2,0,22.1,9.9,22.1,22.1v73.3c-.02,12.19-9.89,22.07-22.08,22.11Zm0-115.11c-10.87,.01-19.67,8.81-19.69,19.68v73.32c0,10.87,8.82,19.69,19.69,19.69s19.69-8.82,19.69-19.69v-73.3c0-10.87-8.82-19.69-19.69-19.7Z"/>
        <path class="cls-25" d="M578.05,329.47h0c0,9.78-7.93,17.71-17.71,17.71h-79.67c-9.78,0-17.71-7.93-17.71-17.71h0c0-9.78,7.93-17.7,17.71-17.7h79.67c9.78,0,17.71,7.93,17.71,17.7Z"/>
        <path class="cls-49" d="M560.34,348.39h-79.67c-10.45-.24-18.73-8.91-18.49-19.36,.23-10.11,8.38-18.26,18.49-18.49h79.67c10.45-.24,19.12,8.04,19.36,18.49,.24,10.45-8.04,19.12-18.49,19.36-.29,0-.58,0-.87,0Zm-79.67-35.39c-9.11,0-16.5,7.39-16.5,16.5s7.39,16.5,16.5,16.5h79.67c9.11,0,16.5-7.39,16.5-16.5s-7.39-16.5-16.5-16.5h-79.67Z"/>
        <ellipse class="cls-12" cx="457.95" cy="329.89" rx="22.56" ry="17.62"/>
        <path class="cls-10" d="M460.49,347c-.84-.09-1.45-.84-1.36-1.68,.07-.63,.52-1.15,1.13-1.32h0c2.72-.49,5.35-1.4,7.8-2.68,4.95-2.66,7.59-6.4,7.84-11.11,.03-.83,.73-1.48,1.57-1.45,.01,0,.03,0,.04,0,.84,.05,1.49,.77,1.45,1.61-.31,5.8-3.6,10.54-9.53,13.69-2.74,1.44-5.68,2.45-8.72,3l-.22-.06Z"/>
        <path class="cls-49" d="M457.96,348.63c-6.56,0-13.09-2.12-17.75-6.26-4.15-3.7-6.27-8.47-5.95-13.42,.32-5.17,3.22-9.87,8.15-13.25,.52-.36,1.24-.22,1.6,.3,.36,.52,.22,1.24-.3,1.6-4.33,3-6.88,7-7.16,11.49-.27,4.24,1.58,8.34,5.19,11.56,7.84,7,21.49,7.66,30.43,1.53,4.33-3,6.87-7.05,7.16-11.49,.26-4.24-1.58-8.34-5.2-11.56-.47-.42-.52-1.15-.1-1.62s1.15-.52,1.62-.1c4.16,3.7,6.27,8.47,6,13.42-.33,5.17-3.22,9.87-8.15,13.25-4.61,3.04-10.03,4.62-15.55,4.55Z"/>
        <ellipse class="cls-15" cx="454.08" cy="325.7" rx="10.47" ry="6.34"/>
        <path class="cls-24" d="M428.19,310.9h0c1.01,0,1.82,.81,1.82,1.82v15.98c0,1.01-.81,1.82-1.82,1.82h0c-1.01,0-1.82-.81-1.82-1.82v-15.98c0-1.01,.81-1.82,1.82-1.82Z"/>
        <path class="cls-24" d="M542.38,253.08h0c1.01,0,1.82,.81,1.82,1.82v15.98c0,1.01-.81,1.82-1.82,1.82h0c-1.01,0-1.82-.81-1.82-1.82v-15.98c0-1.01,.81-1.82,1.82-1.82Z"/>
        <path class="cls-24" d="M409.18,251.12h0c1.01,0,1.82,.81,1.82,1.82v15.98c0,1.01-.81,1.82-1.82,1.82h0c-1.01,0-1.82-.81-1.82-1.82v-15.98c0-1.01,.81-1.82,1.82-1.82Z"/>
        <rect class="cls-54" x="148.12" y="298.4" width="58.16" height="54.73"/>
        <path class="cls-49" d="M206.28,354.37h-58.16c-.68,0-1.23-.56-1.24-1.24v-54.73c0-.68,.56-1.24,1.24-1.24h58.16c.68,0,1.24,.56,1.24,1.24v54.73c0,.68-.56,1.23-1.24,1.24Zm-56.92-2.48h55.68v-52.25h-55.68v52.25Z"/>
        <rect class="cls-32" x="160.01" y="298.4" width="58.16" height="54.73"/>
        <path class="cls-49" d="M218.17,354.37h-58.16c-.68,0-1.24-.56-1.24-1.24v-54.73c0-.68,.54-1.23,1.22-1.24,0,0,.01,0,.02,0h58.16c.68,0,1.24,.56,1.24,1.24v54.73c0,.68-.56,1.23-1.24,1.24Zm-56.92-2.48h55.71v-52.25h-55.71v52.25Z"/>
        <path class="cls-54" d="M198.57,325.16h-37.21v-8.68h37.21c2.4,0,4.34,1.94,4.34,4.34h0c0,2.4-1.94,4.34-4.34,4.34Z"/>
        <rect class="cls-54" x="47.69" y="129.98" width="259.84" height="185.06" rx="11.92" ry="11.92"/>
        <path class="cls-49" d="M295.61,316.28H59.61c-7.26-.01-13.15-5.9-13.16-13.16V141.9c.01-7.26,5.9-13.15,13.16-13.16h117c.68,0,1.24,.55,1.24,1.24s-.55,1.24-1.24,1.24H59.61c-5.88,.02-10.64,4.8-10.65,10.68v161.22c0,5.88,4.77,10.66,10.65,10.68h236c5.9,0,10.67-4.78,10.68-10.68V141.9c0-5.9-4.78-10.67-10.68-10.68h-44.17c-.68,0-1.24-.55-1.24-1.24s.55-1.24,1.24-1.24h44.17c7.26,.01,13.15,5.9,13.16,13.16v161.22c-.01,7.26-5.9,13.15-13.16,13.16Z"/>
        <rect class="cls-32" x="58.98" y="129.98" width="259.84" height="185.06" rx="11.92" ry="11.92"/>
        <rect class="cls-34" x="70.39" y="139.79" width="240.91" height="167.83" rx="7.94" ry="7.94"/>
        <ellipse class="cls-54" cx="188.64" cy="325.28" rx="1.54" ry=".66"/>
        <circle class="cls-54" cx="185.26" cy="327.96" r=".9"/>
        <circle class="cls-54" cx="191.35" cy="327.51" r=".9"/>
        <circle class="cls-54" cx="171.98" cy="324.46" r="2.11"/>
        <circle class="cls-54" cx="194.13" cy="324.46" r="2.11"/>
        <circle class="cls-54" cx="177.25" cy="327.53" r=".95"/>
        <circle class="cls-54" cx="172.07" cy="329.98" r=".94"/>
        <circle class="cls-54" cx="167.69" cy="327.96" r=".43"/>
        <circle class="cls-54" cx="169.41" cy="327.53" r=".95"/>
        <path class="cls-56" d="M307.08,294.59h0c-1.87,0-3.38-1.51-3.38-3.38v-87.48c0-1.87,1.51-3.38,3.38-3.38h0c1.87,0,3.38,1.51,3.38,3.38v87.48c0,1.87-1.51,3.38-3.38,3.38Z"/>
        <path class="cls-56" d="M307.09,154.37h0c1.87,0,3.38,1.51,3.38,3.38v23.04c0,1.87-1.51,3.38-3.38,3.38h0c-1.87,0-3.38-1.51-3.38-3.38v-23.04c0-1.87,1.51-3.38,3.38-3.38Z"/>
        <rect class="cls-6" x="71.73" y="192.65" width="6.76" height="44.67" rx="3.38" ry="3.38"/>
        <rect class="cls-6" x="71.73" y="147.07" width="6.76" height="29.8" rx="3.38" ry="3.38"/>
        <rect class="cls-6" x="71.73" y="259.43" width="6.76" height="13.27" rx="3.38" ry="3.38"/>
        <path class="cls-49" d="M70.39,170.51c-.68,0-1.23-.56-1.24-1.24v-21.54c0-5.07,4.11-9.17,9.18-9.18H245.17c.68,0,1.24,.55,1.24,1.24s-.55,1.24-1.24,1.24H78.33c-3.7,0-6.69,3-6.7,6.7v21.54c0,.68-.56,1.23-1.24,1.24Z"/>
        <path class="cls-49" d="M303.36,308.86H125.47c-.68,0-1.24-.56-1.24-1.24s.56-1.24,1.24-1.24h177.89c3.7,0,6.69-3,6.7-6.7V147.68c0-3.7-3-6.69-6.7-6.7h-47.33c-.68,0-1.24-.55-1.24-1.24s.55-1.24,1.24-1.24h47.33c5.07,0,9.17,4.11,9.18,9.18v152c0,5.07-4.11,9.17-9.18,9.18Z"/>
        <path class="cls-49" d="M115.57,308.86h-37.24c-5.07,0-9.17-4.11-9.18-9.18v-48c0-.68,.56-1.24,1.24-1.24s1.24,.56,1.24,1.24v48c0,3.7,3,6.69,6.7,6.7h37.24c.68,0,1.24,.56,1.24,1.24s-.56,1.24-1.24,1.24h0Z"/>
        <path class="cls-49" d="M70.39,242.72c-.68,0-1.23-.56-1.24-1.24v-62.26c0-.68,.56-1.24,1.24-1.24s1.24,.56,1.24,1.24v62.26c0,.68-.56,1.23-1.24,1.24Z"/>
        <rect class="cls-54" x="59.21" y="147.48" width="5.59" height="10.21" rx="2.79" ry="2.79"/>
        <rect class="cls-54" x="59.21" y="247.74" width="5.59" height="14.34" rx="2.79" ry="2.79"/>
        <rect class="cls-54" x="59.21" y="184.16" width="5.59" height="10.21" rx="2.79" ry="2.79"/>
        <path class="cls-49" d="M306.9,316.28H70.9c-7.26-.01-13.15-5.9-13.16-13.16V141.9c.01-7.26,5.9-13.15,13.16-13.16H225.62c.68,0,1.24,.55,1.24,1.24s-.55,1.24-1.24,1.24H70.9c-5.9,0-10.67,4.78-10.68,10.68v161.22c0,5.9,4.78,10.67,10.68,10.68h236c5.9,0,10.67-4.78,10.68-10.68V141.9c0-5.9-4.78-10.67-10.68-10.68h-71.87c-.68,0-1.24-.55-1.24-1.24s.55-1.24,1.24-1.24h71.87c7.26,.01,13.15,5.9,13.16,13.16v161.22c-.01,7.26-5.9,13.15-13.16,13.16Z"/>
        <g class="cls-63">
          <path class="cls-48" d="M392.09,192.34h-13.13v-22.19h39.07c.87,0,1.58,.71,1.58,1.58s-.71,1.58-1.58,1.58h-35.9v15.87h10c.87,0,1.58,.71,1.58,1.58s-.71,1.58-1.58,1.58h-.04Z"/>
          <path class="cls-48" d="M402.43,192.34h-5.69c-.87,0-1.58-.71-1.58-1.58s.71-1.58,1.58-1.58h5.69c.87,0,1.58,.71,1.58,1.58s-.71,1.58-1.58,1.58Z"/>
          <path class="cls-48" d="M406.82,192.34h-.12c-.87,0-1.58-.71-1.58-1.58s.71-1.58,1.58-1.58h.12c.87,0,1.58,.71,1.58,1.58s-.71,1.58-1.58,1.58Z"/>
          <path class="cls-48" d="M434.47,192.34h-23.23c-.87,0-1.58-.71-1.58-1.58s.71-1.58,1.58-1.58h20.08v-15.87h-7c-.87,0-1.58-.71-1.58-1.58s.71-1.58,1.58-1.58h10.18l-.03,22.19Z"/>
          <path class="cls-48" d="M407.87,173.31h-55.49v-22.14h55.49v22.14Zm-52.35-3.16h49.19v-15.83h-49.18v15.83Z"/>
        </g>
        <g class="cls-63">
          <path class="cls-48" d="M110.56,112h-13.15v-22.17h39.08c.87,.07,1.52,.83,1.45,1.7-.06,.77-.68,1.39-1.45,1.45h-35.89v15.88h10c.87-.07,1.63,.58,1.7,1.45,.07,.87-.58,1.63-1.45,1.7-.08,0-.17,0-.25,0h-.04Z"/>
          <path class="cls-48" d="M120.96,112h-5.7c-.87-.07-1.52-.83-1.45-1.7,.06-.77,.68-1.39,1.45-1.45h5.7c.87,.07,1.52,.83,1.45,1.7-.06,.77-.68,1.39-1.45,1.45Z"/>
          <path class="cls-48" d="M125.29,112h-.11c-.87,.07-1.63-.58-1.7-1.45-.07-.87,.58-1.63,1.45-1.7,.08,0,.17,0,.25,0h.11c.87-.07,1.63,.58,1.7,1.45,.07,.87-.58,1.63-1.45,1.7-.08,0-.17,0-.25,0Z"/>
          <path class="cls-48" d="M152.96,112h-23.24c-.87,.07-1.63-.58-1.7-1.45-.07-.87,.58-1.63,1.45-1.7,.08,0,.17,0,.25,0h20.07v-15.85h-7c-.87,.07-1.63-.58-1.7-1.45s.58-1.63,1.45-1.7c.08,0,.17,0,.25,0h10.17v22.15Z"/>
          <path class="cls-48" d="M126.34,93h-55.49v-22.16h55.49v22.16Zm-52.38-3.17h49.19v-15.83h-49.14l-.05,15.83Z"/>
        </g>
        <g class="cls-63">
          <path class="cls-48" d="M625.61,103.13h-13.15v-22.19h39.07c.87,0,1.58,.71,1.58,1.58s-.71,1.58-1.58,1.58h-35.88v15.9h10c.87,0,1.58,.71,1.58,1.58s-.71,1.58-1.58,1.58l-.04-.03Z"/>
          <path class="cls-48" d="M635.96,103.13h-5.7c-.87,0-1.58-.71-1.58-1.58s.71-1.58,1.58-1.58h5.7c.87,0,1.58,.71,1.58,1.58s-.71,1.58-1.58,1.58Z"/>
          <path class="cls-48" d="M640.34,103.13h-.12c-.87,0-1.58-.71-1.58-1.58s.71-1.58,1.58-1.58h.12c.87,0,1.58,.71,1.58,1.58s-.71,1.58-1.58,1.58Z"/>
          <path class="cls-48" d="M667.96,103.13h-23.2c-.87,0-1.58-.71-1.58-1.58s.71-1.58,1.58-1.58h20.08v-15.87h-7c-.87,0-1.58-.71-1.58-1.58s.71-1.58,1.58-1.58h10.17l-.05,22.19Z"/>
          <path class="cls-48" d="M641.39,84.1h-55.49v-22.1h55.49v22.1Zm-52.35-3.16h49.19v-15.83h-49.18v15.83Z"/>
        </g>
        <path class="cls-49" d="M295.55,345.9h-11.73c-.51,0-.93-.41-.93-.93s.41-.93,.93-.93h11.74c.51,0,.93,.42,.93,.93,0,.51-.42,.92-.93,.93Z"/>
        <path class="cls-49" d="M295.55,350.71h-11.73c-.52,.05-.98-.32-1.03-.84-.05-.52,.32-.98,.84-1.03,.06,0,.13,0,.19,0h11.73c.52,.05,.89,.52,.84,1.03-.05,.44-.4,.79-.84,.84Z"/>
        <ellipse class="cls-16" cx="262.71" cy="354.03" rx="1.4" ry="2.12"/>
        <circle class="cls-16" cx="262.3" cy="359.31" r=".99"/>
        <circle class="cls-49" cx="298.16" cy="358.11" r="1.02"/>
        <path class="cls-5" d="M103.54,344.59H641.95c4.13,0,7.48,3.35,7.48,7.48h0c0,4.13-3.35,7.48-7.48,7.48H103.54c-4.13,0-7.48-3.35-7.48-7.48h0c0-4.13,3.35-7.48,7.48-7.48Z"/>
        <path class="cls-5" d="M103.54,344.59H641.95c4.13,0,7.48,3.35,7.48,7.48h0c0,4.13-3.35,7.48-7.48,7.48H103.54c-4.13,0-7.48-3.35-7.48-7.48h0c0-4.13,3.35-7.48,7.48-7.48Z"/>
        <path class="cls-13" d="M649.42,351.72c0,4.12-3.34,7.47-7.46,7.48H103.53c-4.13,0-7.48-3.35-7.48-7.48h0c0-1.01,.21-2,.61-2.92,1.17,2.75,3.88,4.54,6.87,4.54H641.96c1.98,0,3.88-.78,5.28-2.18,.68-.68,1.22-1.48,1.59-2.36,.4,.92,.6,1.92,.59,2.92Z"/>
        <path class="cls-49" d="M547.45,345.48h-20c-.64,0-1.15-.51-1.15-1.15,0-.64,.51-1.15,1.15-1.15h20.01c.64,0,1.15,.51,1.15,1.15,0,.64-.51,1.15-1.15,1.15h0Z"/>
        <path class="cls-49" d="M117.86,350.63h-21.16c-.49-.05-.84-.49-.79-.98,.04-.42,.37-.75,.79-.79h21.16c.49-.05,.93,.3,.98,.79,.05,.49-.3,.93-.79,.98-.06,0-.13,0-.19,0Z"/>
        <path class="cls-49" d="M125.87,350.63h-3.49c-.49-.05-.84-.49-.79-.98,.04-.42,.37-.75,.79-.79h3.49c.49,.05,.84,.49,.79,.98-.04,.42-.37,.75-.79,.79Z"/>
        <rect class="cls-27" x="276.46" y="345.23" width="61.99" height="4.29" rx="2.14" ry="2.14"/>
        <rect class="cls-27" x="233.23" y="345.23" width="34.64" height="4.29" rx="2.14" ry="2.14"/>
        <rect class="cls-27" x="160.58" y="345.23" width="34.64" height="4.29" rx="2.14" ry="2.14"/>
        <path class="cls-49" d="M641.96,360.43H103.53c-4.76-.16-8.49-4.16-8.33-8.92,.15-4.54,3.8-8.18,8.33-8.33h412.29c.64,0,1.15,.51,1.15,1.15,0,.64-.51,1.15-1.15,1.15H103.53c-3.49,.14-6.21,3.08-6.07,6.58,.13,3.3,2.78,5.94,6.07,6.07H641.96c3.49-.14,6.21-3.08,6.07-6.58-.13-3.3-2.78-5.94-6.07-6.07h-81.76c-.64,0-1.15-.51-1.15-1.15,0-.64,.51-1.15,1.15-1.15h81.77c4.76-.16,8.76,3.57,8.92,8.33,.16,4.76-3.57,8.76-8.33,8.92-.2,0-.39,0-.59,0Z"/>
        <path class="cls-12" d="M446.84,100.57l6.66,.13c8.66,.2,15.53,7.34,15.4,16h0c-.13,8.66-7.25,15.58-15.91,15.45-.01,0-.02,0-.03,0h0l-6.66-.13c-8.67-.19-15.55-7.33-15.42-16h0c.15-8.66,7.29-15.56,15.95-15.41,0,0,0,0,0,0v-.04Z"/>
        <path class="cls-49" d="M430.36,117.12h0c-.75,0-1.36-.62-1.35-1.37,0,0,0,0,0-.01,.04-3.54,1.21-6.98,3.32-9.82,.45-.6,1.3-.73,1.9-.29,.6,.45,.73,1.3,.29,1.91-1.77,2.38-2.75,5.27-2.78,8.24-.01,.75-.63,1.35-1.38,1.34,0,0,0,0,0,0Z"/>
        <path class="cls-49" d="M452.71,133.31h-.3l-6.68-.13c-6.97-.13-13.17-4.48-15.65-11-.26-.7,.09-1.49,.79-1.76,.7-.27,1.49,.08,1.76,.78,0,0,0,0,0,0,2.07,5.49,7.29,9.17,13.16,9.27l6.64,.14c7.94,0,14.39-6.42,14.39-14.37,0-7.74-6.11-14.1-13.84-14.38l-6.65-.14c-2.62-.06-5.2,.6-7.47,1.91-.65,.38-1.48,.16-1.86-.49h0c-.38-.65-.16-1.49,.49-1.87,2.7-1.56,5.78-2.34,8.9-2.27l6.65,.13c9.44,.3,16.86,8.2,16.56,17.65-.29,9.15-7.73,16.45-16.89,16.56v-.04Z"/>
        <path class="cls-8" d="M449.14,113.44l3.46,.06c4.51,.1,8.08,3.83,8,8.34h0c-.1,4.5-3.82,8.08-8.32,8l-3.46-.07c-4.5-.1-8.08-3.83-8-8.33h0c.09-4.5,3.82-8.08,8.32-8Z"/>
        <path class="cls-16" d="M437.48,110.88c.53-1.39,1.57-2.53,2.91-3.17,1.16-.45,.69-2.34-.51-1.88-1.85,.78-3.32,2.25-4.1,4.09-.48,1.14,1.19,2.13,1.68,1l.02-.04Z"/>
        <ellipse class="cls-16" cx="437.06" cy="114.63" rx="1.55" ry="1.24" transform="translate(258.25 529.58) rotate(-81.38)"/>
        <path class="cls-12" d="M556.96,100.57l6.66,.13c8.67,.19,15.55,7.33,15.42,16h0c-.15,8.66-7.29,15.56-15.95,15.41,0,0,0,0,0,0h0l-6.65-.13c-8.68-.15-15.6-7.3-15.48-15.98h0c.15-8.66,7.29-15.56,15.94-15.41,.02,0,.04,0,.06,0v-.02Z"/>
        <path class="cls-49" d="M563.32,133.33h-.29l-6.69-.14c-9.43-.22-16.91-8-16.76-17.43,.16-9.28,7.72-16.72,17-16.75h.38l6.65,.13c9.44,.08,17.03,7.79,16.95,17.23s-7.79,17.03-17.23,16.95h-.01Zm-6.69-31.58c-7.81,0-14.18,6.26-14.32,14.07-.13,7.93,6.16,14.47,14.09,14.66l6.65,.13c7.93,.14,14.47-6.18,14.61-14.11s-6.18-14.47-14.11-14.61l-6.65-.14h-.27Z"/>
        <path class="cls-8" d="M559.75,113.44l3.47,.06c4.5,.11,8.07,3.83,8,8.33h0c-.1,4.5-3.83,8.08-8.33,8l-3.45-.07c-4.5-.1-8.08-3.83-8-8.33h0c.1-4.49,3.82-8.06,8.31-7.99Z"/>
        <path class="cls-51" d="M440.43,118.54c-.55,.03-1.02-.4-1.05-.95-.01-.26,.08-.52,.26-.72,1.98-2.42,4.73-4.09,7.79-4.71,.55-.11,1.09,.24,1.21,.79,.11,.55-.24,1.09-.8,1.21h0c-2.6,.53-4.94,1.94-6.61,4-.19,.24-.49,.38-.8,.38Z"/>
        <path class="cls-51" d="M572.03,118.54c-.31,0-.61-.14-.8-.38-1.67-2.06-4.01-3.47-6.61-4-.55-.11-.91-.65-.79-1.2,.11-.55,.65-.91,1.2-.8h0c3.06,.62,5.81,2.29,7.79,4.71,.36,.42,.31,1.05-.11,1.41-.01,.01-.02,.02-.04,.03-.18,.15-.41,.23-.64,.23Z"/>
        <path class="cls-12" d="M545.13,34.62c.69,.59,1.29,1.21,1.91,1.83,10.97,10.94,17.13,25.8,17.11,41.29v52.26c.35,32.25-25.51,58.68-57.76,59.04-32.25,.35-58.68-25.51-59.04-57.76v-53.53c-.03-16.41,6.87-32.07,19-43.13,21.23-19.37,57.49-19.24,78.78,.01Z"/>
        <path class="cls-8" d="M547.36,36.72c-.62-.62-1.26-1.23-1.91-1.82-1.94,1.18-3.94,2.24-6,3.18,.28,.28,.53,.58,.79,.88l2.11,2.47c3.13,3.86,5.78,8.08,7.9,12.57h-70c0,3.47,2.82,6.28,6.29,6.28h66.17c1.68,5.27,2.51,10.76,2.48,16.29v53.73c0,30.46-23.41,55.81-53.77,58.22,1.52,.12,3.07,.18,4.62,.18,32.25,0,58.39-26.13,58.4-58.38v-52.32c.02-15.48-6.12-30.34-17.08-41.28Z"/>
        <path class="cls-12" d="M518.24,199.55c0,2.51,.71,5.34-.47,7.3-2.34,3.91-8.07,5.9-13.06,5.81h0c-7.5-.16-13.46-6.35-13.35-13.85l.68-10.89v-.68l27,.13"/>
        <path class="cls-9" d="M519.96,188.4l-1.7,14.13c-3.09,.68-6.31,.42-9.25-.74-5.21-2.34-10.67-4.08-16.28-5.19h-.13l.14-8.18c9,1.6,18.22,1.6,27.22,0v-.02Z"/>
        <circle class="cls-20" cx="482.7" cy="182.33" r=".72"/>
        <circle class="cls-20" cx="492.72" cy="185.81" r=".95"/>
        <path class="cls-16" d="M510.96,187.58c-1.49,.11-3,.17-4.53,.17-32.25,0-61.86-25.73-58.4-58.4v-52.29c-.02-16.41,6.88-32.06,19-43.12,1.85,1.12,1.45,2.17,3.53,3.13-9.83,10.44-17.44,24.54-17.44,40v52.29c.06,30.73,23.74,57.21,57.84,58.22Z"/>
        <circle class="cls-12" cx="538.83" cy="96.14" r="4.28"/>
        <path class="cls-49" d="M452.33,154.8c-.53,0-1-.31-1.23-.78-.62-1.28-1.11-2.62-1.46-4-.24-.72,.14-1.49,.86-1.74,.72-.24,1.49,.14,1.74,.86,.02,.07,.04,.14,.05,.22,.3,1.21,.73,2.39,1.27,3.52,.33,.68,.04,1.49-.63,1.82,0,0,0,0,0,0-.19,.08-.39,.11-.59,.1Z"/>
        <ellipse class="cls-10" cx="486.63" cy="111.98" rx="7.51" ry="9.5"/>
        <ellipse class="cls-49" cx="486.29" cy="109.92" rx="7.4" ry="9.38"/>
        <ellipse class="cls-16" cx="483.65" cy="106.51" rx="2.73" ry="2.98"/>
        <ellipse class="cls-10" cx="525.65" cy="111.98" rx="7.51" ry="9.5"/>
        <ellipse class="cls-49" cx="525.32" cy="109.92" rx="7.4" ry="9.38"/>
        <ellipse class="cls-16" cx="522.67" cy="106.51" rx="2.73" ry="2.98"/>
        <path class="cls-49" d="M505.71,189.86c-21.12-.05-40.66-11.2-51.45-29.36-.44-.62-.29-1.47,.32-1.91,.62-.44,1.47-.29,1.91,.32,.04,.06,.08,.13,.12,.2,10.3,17.33,28.95,27.96,49.1,28h.07c31.5-.06,57-25.61,57-57.11v-52.26c-.02-15.12-6.02-29.62-16.7-40.33l-.12-.11c-.58-.58-1.13-1.13-1.74-1.66-9.94-9-24-14.13-38.52-14.15h-.09c-14.75,0-28.36,5-38.33,14.13-11.84,10.8-18.59,26.09-18.59,42.12v52.26c0,3.45,.31,6.9,.92,10.3,.08,.75-.47,1.43-1.22,1.5-.67,.07-1.3-.37-1.47-1.02-.64-3.56-.96-7.17-.96-10.78v-52.26c0-16.79,7.06-32.81,19.46-44.14,21.71-19.84,58.61-19.85,80.59,0,.66,.57,1.27,1.18,1.86,1.77l.1,.11c11.19,11.22,17.48,26.41,17.51,42.26v52.26c0,32.99-26.71,59.76-59.7,59.84l-.07,.02Z"/>
        <path class="cls-49" d="M505.26,213.89c-3.58,0-7.04-1.36-9.67-3.79-3.12-2.85-4.9-6.88-4.91-11.1v-10.58c0-.75,.61-1.36,1.36-1.36s1.36,.61,1.36,1.36v10.58c0,3.46,1.45,6.77,4,9.11,2.43,2.24,5.71,3.33,9,3l.82-.1c5.86-.98,10.14-6.06,10.11-12v-10.61c-.06-.75,.49-1.42,1.25-1.48,.75-.06,1.42,.49,1.48,1.25,0,.08,0,.16,0,.23v10.6c.02,7.28-5.25,13.5-12.43,14.68-.33,.05-.65,.09-1,.12-.45,.05-.91,.08-1.37,.09Z"/>
        <rect class="cls-24" x="456.52" y="88.86" width="4.25" height="22.93" rx="2.12" ry="2.12"/>
        <path class="cls-49" d="M508.08,130.22c-.56,0-1.07-.35-1.27-.88-1.32-3.48-2.1-7.14-2.33-10.85v-15.95c0-.75,.61-1.36,1.36-1.36s1.36,.61,1.36,1.36v15.83c.22,3.42,.94,6.79,2.16,10,.27,.7-.08,1.49-.78,1.76,0,0,0,0,0,0-.16,.06-.32,.09-.49,.09Z"/>
        <path class="cls-8" d="M531.03,17.71h-28.69c-7.44-9.79-19.02-15.54-31.32-15.55h-35.68c0,28.52,22.88,52.88,51.1,52.88h80.3c0-19.93-15.99-37.33-35.71-37.33Z"/>
        <path class="cls-38" d="M550.63,23.51c9.25,6.54,15.3,18.55,15.3,30.74h-81.17c-15.85,0-30.82-7.27-40.6-19.75,9.09,7.15,20.33,11.03,31.9,11h65.65c10.45,0,16.37-13.63,9.45-21.46l-.53-.57"/>
        <rect class="cls-26" x="444.17" y="4.27" width="22.93" height="4.25" rx="2.12" ry="2.12"/>
        <ellipse class="cls-36" cx="337.49" cy="339.19" rx=".96" ry="1.51"/>
        <circle class="cls-36" cx="339.31" cy="336.6" r=".52"/>
        <circle class="cls-36" cx="338.97" cy="334.92" r=".52"/>
        <circle class="cls-36" cx="340.85" cy="334.74" r=".43"/>
        <circle class="cls-36" cx="340.15" cy="338.89" r=".32"/>
        <circle class="cls-36" cx="338.45" cy="338.89" r=".77"/>
        <circle class="cls-36" cx="337.01" cy="340.91" r=".48"/>
        <circle class="cls-36" cx="339.31" cy="340.43" r=".34"/>
        <circle class="cls-36" cx="340.63" cy="336.81" r=".22"/>
        <circle class="cls-36" cx="338.23" cy="341.39" r=".22"/>
        <circle class="cls-36" cx="339.65" cy="337.68" r=".22"/>
        <ellipse class="cls-42" cx="162.39" cy="364.29" rx="8.96" ry="3.08"/>
        <circle class="cls-42" cx="179.4" cy="364.45" r="2.15"/>
        <circle class="cls-42" cx="178.3" cy="372.11" r="1.1"/>
        <circle class="cls-42" cx="171.14" cy="369.18" r="1.1"/>
        <circle class="cls-42" cx="162.39" cy="372.11" r="1.07"/>
        <circle class="cls-42" cx="161.65" cy="367.73" r="1.07"/>
        <circle class="cls-42" cx="146.36" cy="363.99" r="2.61"/>
        <circle class="cls-42" cx="153.43" cy="373.03" r="2.75"/>
        <circle class="cls-42" cx="145.33" cy="368.06" r="2.75"/>
        <ellipse class="cls-42" cx="555.84" cy="364.98" rx="8.96" ry="3.08"/>
        <circle class="cls-42" cx="572.85" cy="365.14" r="2.15"/>
        <circle class="cls-42" cx="571.75" cy="372.8" r="1.1"/>
        <circle class="cls-42" cx="564.59" cy="369.87" r="1.1"/>
        <circle class="cls-42" cx="561.78" cy="373.87" r="1.07"/>
        <circle class="cls-42" cx="555.84" cy="372.8" r="1.07"/>
        <circle class="cls-42" cx="555.1" cy="368.42" r="1.07"/>
        <circle class="cls-42" cx="539.82" cy="364.68" r="2.61"/>
        <circle class="cls-42" cx="546.88" cy="373.72" r="2.75"/>
        <circle class="cls-42" cx="538.78" cy="368.74" r="2.75"/>
        <ellipse class="cls-53" cx="579.82" cy="250.5" rx="1.69" ry="4.9"/>
        <circle class="cls-53" cx="579.9" cy="241.19" r="1.18"/>
        <circle class="cls-53" cx="584.09" cy="241.79" r=".6"/>
        <circle class="cls-53" cx="582.49" cy="245.71" r=".6"/>
        <circle class="cls-53" cx="584.68" cy="247.25" r=".59"/>
        <circle class="cls-53" cx="584.09" cy="250.5" r=".59"/>
        <circle class="cls-53" cx="581.7" cy="250.91" r=".59"/>
        <circle class="cls-53" cx="579.65" cy="259.27" r="1.43"/>
        <circle class="cls-53" cx="584.6" cy="255.4" r="1.5"/>
        <circle class="cls-53" cx="581.88" cy="259.84" r="1.5"/>
        <ellipse class="cls-26" cx="444.33" cy="23.01" rx="1.23" ry="3.58" transform="translate(43 215.09) rotate(-28.54)"/>
        <circle class="cls-26" cx="441.12" cy="16.96" r=".86"/>
        <circle class="cls-26" cx="444.02" cy="15.89" r=".44"/>
        <circle class="cls-26" cx="444.36" cy="18.96" r=".44"/>
        <circle class="cls-26" cx="446.3" cy="19.18" r=".43"/>
        <circle class="cls-26" cx="447.06" cy="21.47" r=".43"/>
        <circle class="cls-26" cx="445.67" cy="22.57" r=".43"/>
        <path class="cls-26" d="M446.78,27.74c.47-.28,1.09-.13,1.37,.34,.01,.02,.03,.05,.04,.07,.28,.51,.09,2.38-.42,2.66-.47,.28-1.09,.13-1.37-.35-.01-.02-.03-.05-.04-.07-.27-.5-.09-2.39,.42-2.65Z"/>
        <circle class="cls-26" cx="449.1" cy="24.44" r="1.1"/>
        <path class="cls-26" d="M448.37,27.28c.53-.29,1.19-.1,1.48,.42,0,0,0,.01,0,.02,.29,.53,.1,2.44-.44,2.73s-1.2-1.15-1.48-1.69c-.29-.52-.11-1.18,.41-1.47,0,0,.01,0,.02,0Z"/>
        <ellipse class="cls-53" cx="580.19" cy="306.8" rx="1.69" ry="4.9"/>
        <circle class="cls-53" cx="580.28" cy="297.49" r="1.18"/>
        <circle class="cls-53" cx="584.47" cy="298.09" r=".6"/>
        <circle class="cls-53" cx="582.87" cy="302.01" r=".6"/>
        <circle class="cls-53" cx="585.06" cy="303.55" r=".59"/>
        <circle class="cls-53" cx="584.47" cy="306.8" r=".59"/>
        <circle class="cls-53" cx="582.08" cy="307.21" r=".59"/>
        <circle class="cls-53" cx="580.03" cy="315.57" r="1.43"/>
        <circle class="cls-53" cx="584.97" cy="311.7" r="1.5"/>
        <circle class="cls-53" cx="582.25" cy="316.14" r="1.5"/>
        <path class="cls-49" d="M615.96,320.4c-.34,0-.62-.28-.62-.62v-45.13c-.02-.34,.25-.63,.59-.65,.01,0,.02,0,.03,0,.34,0,.62,.28,.62,.62v45.13c.02,.34-.25,.63-.59,.65-.01,0-.02,0-.03,0Z"/>
        <path class="cls-49" d="M612.45,319.16c-.34,0-.62-.28-.62-.62v-42.65c0-.34,.28-.62,.62-.62s.62,.28,.62,.62v42.65c0,.34-.28,.62-.62,.62Z"/>
        <path class="cls-49" d="M608.85,319.16c-.34,0-.62-.28-.62-.62v-42.65c0-.34,.28-.62,.62-.62s.62,.28,.62,.62v42.65c0,.34-.28,.62-.62,.62Z"/>
        <path class="cls-49" d="M605.26,316.67c-.34,0-.62-.27-.63-.61,0,0,0,0,0-.01v-37.05c.04-.35,.36-.59,.7-.55,.29,.04,.51,.26,.55,.55v37.05c0,.34-.28,.62-.62,.62h0Z"/>
        <path class="cls-49" d="M601.66,315.43c-.34,0-.62-.28-.62-.62v-33.95c0-.34,.28-.62,.62-.62s.62,.28,.62,.62v33.95c0,.34-.28,.62-.62,.62Z"/>
        <path class="cls-49" d="M598.06,312.32c-.34,0-.61-.26-.62-.6,0,0,0-.01,0-.02v-27.7c0-.34,.26-.61,.6-.62,0,0,.01,0,.02,0,.34,0,.62,.28,.62,.62v27.7c0,.34-.28,.62-.62,.62Z"/>
        <path class="cls-49" d="M619.62,319.78c-.34,0-.62-.28-.62-.62v-42.65c.04-.35,.36-.59,.7-.55,.29,.04,.51,.26,.55,.55v42.65c0,.34-.29,.62-.63,.62Z"/>
        <path class="cls-49" d="M623.22,319.78c-.34,0-.62-.28-.62-.62v-42.65c0-.34,.28-.62,.62-.62s.62,.28,.62,.62v42.65c0,.34-.28,.62-.62,.62Z"/>
        <path class="cls-49" d="M626.82,317.29c-.34,0-.62-.28-.62-.62v-37.05c0-.34,.28-.62,.62-.62s.62,.28,.62,.62v37.05c0,.34-.26,.61-.6,.62,0,0-.01,0-.02,0Z"/>
        <path class="cls-49" d="M630.42,316.05c-.34,0-.62-.28-.62-.62v-33.95c0-.34,.28-.62,.62-.62,.34,0,.62,.28,.62,.62v33.95c0,.34-.28,.62-.62,.62Z"/>
        <path class="cls-49" d="M634.02,311.7c-.34,0-.62-.28-.62-.62v-26.49c0-.34,.28-.62,.62-.62,.34,0,.62,.28,.62,.62h0v26.49c0,.34-.28,.62-.62,.62h0Z"/>
        <g class="cls-62">
          <path class="cls-49" d="M614.96,320.4c-.34,0-.62-.28-.62-.62v-45.13c0-.34,.28-.62,.62-.62,.34,0,.62,.28,.62,.62h0v45.13c0,.34-.28,.62-.62,.62Z"/>
          <path class="cls-49" d="M611.4,319.16c-.34,0-.62-.28-.62-.62v-42.65c0-.34,.28-.62,.62-.62s.62,.28,.62,.62v42.65c0,.34-.28,.62-.62,.62Z"/>
          <path class="cls-49" d="M607.8,319.16c-.34,0-.62-.28-.62-.62v-42.65c0-.34,.28-.62,.62-.62,.34,0,.62,.28,.62,.62v42.65c0,.34-.28,.62-.62,.62Z"/>
          <path class="cls-49" d="M604.2,316.67c-.34,0-.62-.28-.62-.62v-37.05c0-.34,.28-.62,.62-.62,.34,0,.62,.28,.62,.62v37.05c0,.34-.28,.62-.62,.62h0Z"/>
          <path class="cls-49" d="M600.6,315.43c-.34,0-.62-.28-.62-.62v-33.95c0-.34,.28-.62,.62-.62s.62,.28,.62,.62v33.95c0,.34-.28,.62-.62,.62Z"/>
          <path class="cls-49" d="M596.96,310.46c-.34,0-.62-.28-.62-.62v-24.63c0-.34,.28-.62,.62-.62s.62,.28,.62,.62v24.63c0,.34-.28,.62-.62,.62Z"/>
          <path class="cls-49" d="M618.57,319.78c-.34,0-.62-.28-.62-.62v-42.65c0-.34,.28-.62,.62-.62,.34,0,.62,.28,.62,.62v42.65c0,.34-.28,.62-.62,.62Z"/>
          <path class="cls-49" d="M622.17,319.78c-.34,0-.62-.28-.62-.62v-42.65c0-.34,.28-.62,.62-.62,.34,0,.62,.28,.62,.62v42.65c0,.34-.28,.62-.62,.62Z"/>
          <path class="cls-49" d="M625.77,317.29c-.34,0-.61-.26-.62-.6,0,0,0-.01,0-.02v-37.05c0-.34,.28-.62,.62-.62s.62,.28,.62,.62v37.05c0,.34-.28,.62-.62,.62h0Z"/>
          <path class="cls-49" d="M629.37,316.05c-.34,0-.62-.28-.63-.62v-33.95c.04-.35,.36-.59,.7-.55,.29,.04,.51,.26,.55,.55v33.95c0,.34-.28,.62-.62,.62Z"/>
          <path class="cls-49" d="M632.96,313c-.34,0-.62-.29-.62-.63v-27.78c.04-.35,.36-.59,.7-.55,.29,.04,.51,.26,.55,.55v27.73c.03,.35-.23,.65-.58,.68-.02,0-.03,0-.05,0Z"/>
        </g>
        <path class="cls-49" d="M332.26,337.92h-70.61c-12.07-.01-21.86-9.8-21.87-21.87,0-.68,.56-1.24,1.24-1.24,.68,0,1.24,.55,1.24,1.24,.01,10.7,8.69,19.38,19.39,19.39h70.61c.68,0,1.24,.56,1.24,1.24s-.56,1.24-1.24,1.24Z"/>
        <path class="cls-26" d="M487.65,9.36c-.24,0-.49-.04-.72-.12l-6.62-2.32c-3.4-1.19-6.97-1.79-10.57-1.79h-28.91c-1.2,.08-2.24-.83-2.32-2.03-.08-1.2,.83-2.24,2.03-2.32,.1,0,.2,0,.3,0h28.91c4.08-.02,8.14,.66,12,2l6.61,2.31c1.13,.41,1.72,1.66,1.31,2.79-.31,.85-1.11,1.43-2.02,1.44v.04Z"/>
        <path class="cls-26" d="M447.34,35.83c-.62,0-1.22-.27-1.63-.73-7.95-9-9.87-21.16-9.95-21.67-.26-1.18,.48-2.34,1.65-2.6s2.34,.48,2.6,1.65c.02,.09,.04,.19,.04,.29h0c0,.11,1.82,11.42,8.91,19.45,.8,.9,.71,2.27-.18,3.06-.4,.35-.91,.55-1.45,.55h0Z"/>
        <path class="cls-49" d="M523.45,18.28h-6.17c-.75-.06-1.31-.73-1.25-1.48,.06-.66,.58-1.19,1.25-1.25h6.17c.75-.06,1.42,.49,1.48,1.25,.06,.75-.49,1.42-1.25,1.48-.08,0-.16,0-.23,0Z"/>
        <path class="cls-49" d="M566.74,55.61h-81.17c-14.18-.04-27.73-5.88-37.49-16.16-9.95-10.18-15.51-23.86-15.51-38.09C432.57,.61,433.17,0,433.93,0c.01,0,.02,0,.03,0h36c12.58-.03,24.49,5.69,32.32,15.55h9c.75,.06,1.31,.73,1.25,1.48-.06,.66-.58,1.19-1.25,1.25h-9.69c-.42,0-.82-.19-1.07-.53-7.29-9.5-18.59-15.05-30.56-15.02h-34.65c.35,13.05,5.61,25.48,14.72,34.82,9.25,9.75,22.1,15.29,35.54,15.33h79.78c-.72-18.89-16.32-34.6-34.7-34.6h-1.44c-.75,.06-1.42-.49-1.48-1.25-.06-.75,.49-1.42,1.25-1.48,.08,0,.16,0,.23,0h1.44c20.3,0,37.45,17.72,37.45,38.7,0,.75-.61,1.36-1.36,1.36Z"/>
        <path class="cls-56" d="M216.96,257.27h88.39v24.27h-77.79c-5.86-.02-10.6-4.77-10.6-10.63v-13.64h0Z"/>
        <rect class="cls-16" x="216.93" y="180.49" width="139.42" height="92.63" rx="7.36" ry="7.36"/>
        <path class="cls-59" d="M356.35,253.49v9.11c0,5.35-4.34,9.69-9.69,9.7h-120c-5.35,0-9.69-4.35-9.69-9.7v-9.11c0,5.35,4.34,9.69,9.69,9.69h120c5.35,0,9.69-4.34,9.69-9.69Z"/>
        <path class="cls-49" d="M348.85,274.35h-124.42c-4.82,0-8.73-3.91-8.74-8.73v-77.62c.01-4.82,3.92-8.72,8.74-8.73h124.42c4.82,0,8.73,3.91,8.74,8.73v77.64c-.02,4.81-3.93,8.7-8.74,8.71Zm-124.42-92.62c-3.45,0-6.25,2.8-6.26,6.25v77.64c0,3.46,2.8,6.25,6.26,6.26h124.42c3.46,0,6.25-2.8,6.26-6.26v-77.62c0-3.45-2.81-6.25-6.26-6.25l-124.42-.02Z"/>
        <path class="cls-49" d="M344.71,196.64h-127.75c-.51,0-.93-.42-.93-.93s.42-.93,.93-.93h127.75c.51,0,.93,.42,.93,.93s-.42,.93-.93,.93h0Z"/>
        <circle class="cls-28" cx="227.97" cy="188.79" r="2.28"/>
        <circle class="cls-4" cx="236.4" cy="188.72" r="2.28"/>
        <circle class="cls-55" cx="244.82" cy="188.64" r="2.28"/>
        <path class="cls-49" d="M227.61,191.49h-.31c-1.54-.18-2.64-1.56-2.48-3.1,.07-.74,.43-1.41,1-1.88,1.22-.96,2.98-.75,3.93,.47s.75,2.98-.47,3.93c-.49,.38-1.09,.6-1.71,.6l.04-.02Zm0-4.56c-.89,0-1.64,.67-1.75,1.56-.11,.97,.58,1.84,1.55,1.95s1.84-.58,1.95-1.55c.11-.96-.58-1.84-1.55-1.95h-.2Z"/>
        <path class="cls-49" d="M236.04,191.42h-.32c-1.53-.24-2.59-1.67-2.35-3.2,.22-1.45,1.52-2.48,2.98-2.38,1.54,.17,2.64,1.56,2.47,3.09,0,0,0,0,0,0-.17,1.41-1.36,2.47-2.78,2.48Zm0-4.56c-.97,0-1.76,.79-1.76,1.76,0,.97,.79,1.76,1.76,1.76,.9,0,1.65-.68,1.75-1.57,.05-.46-.08-.93-.37-1.29-.29-.37-.72-.6-1.18-.65h-.2Z"/>
        <path class="cls-49" d="M244.46,191.35c-.1,0-.21,0-.31,0-.74-.07-1.41-.43-1.88-1-.47-.58-.68-1.33-.6-2.07,.07-.73,.43-1.41,1-1.88,.58-.46,1.32-.67,2.06-.59,1.54,.18,2.64,1.56,2.48,3.1-.08,.73-.44,1.41-1,1.88-.5,.38-1.12,.58-1.75,.56Zm0-4.56c-.89,0-1.64,.67-1.74,1.56-.1,.96,.59,1.83,1.55,1.94,.46,.05,.93-.08,1.29-.37,.76-.61,.88-1.72,.27-2.47-.29-.36-.71-.59-1.17-.65h-.2Z"/>
        <line class="cls-1" x1="264.01" y1="229.89" x2="264.02" y2="223.98"/>
        <path class="cls-49" d="M273.65,217.59c-.39,0-.71-.32-.71-.71,0-.39,.32-.71,.71-.71l54-.48h0c.39,0,.7,.31,.71,.7,0,.39-.32,.71-.71,.72l-54,.48Z"/>
        <path class="cls-49" d="M273.65,222.38c-.39,0-.7-.31-.71-.7,0-.39,.3-.7,.69-.71,0,0,0,0,.01,0l38.51-.48h0c.39-.05,.74,.23,.79,.62,.05,.39-.23,.74-.62,.79-.06,0-.11,0-.17,0l-38.51,.48h0Z"/>
        <path class="cls-49" d="M273.65,227.18c-.39,0-.71-.32-.71-.71,0-.39,.32-.71,.71-.71l21.11-.48c.39,0,.7,.31,.72,.7,.01,.39-.29,.71-.68,.72,0,0,0,0-.01,0l-21.11,.48h-.03Z"/>
        <path class="cls-49" d="M273.65,235.35c-.39,0-.71-.32-.71-.71,0-.39,.32-.71,.71-.71l54-.48h0c.39,0,.7,.31,.71,.7,0,.39-.32,.71-.71,.72l-54,.48Z"/>
        <path class="cls-49" d="M273.65,240.14c-.39,0-.7-.31-.71-.7,0-.39,.3-.7,.69-.71,0,0,0,0,.01,0l38.51-.48h0c.39-.05,.74,.23,.79,.62,.05,.39-.23,.74-.62,.79-.06,0-.11,0-.17,0l-38.51,.48h0Z"/>
        <path class="cls-49" d="M273.65,244.94c-.39,0-.71-.32-.71-.71,0-.39,.32-.71,.71-.71l21.11-.48c.39,0,.7,.31,.72,.7,.01,.39-.29,.71-.68,.72,0,0,0,0-.01,0l-21.11,.48h-.03Z"/>
        <rect class="cls-37" x="257.45" y="212.17" width="8.09" height="1.55" rx=".77" ry=".77" transform="translate(17.74 445.99) rotate(-82.87)"/>
        <rect class="cls-37" x="260.09" y="216.7" width="8.09" height="1.55" rx=".77" ry=".77" transform="translate(15.56 452.57) rotate(-82.87)"/>
        <rect class="cls-37" x="255.59" y="241.16" width="4.64" height=".89" rx=".44" ry=".44" transform="translate(-13.84 467.53) rotate(-82.87)"/>
        <line class="cls-1" x1="267.39" y1="233.8" x2="267.4" y2="227.89"/>
        <path class="cls-57" d="M267.42,221.23v-8.57c.01-2.35-1.88-4.26-4.23-4.27h0l-29.82-.06c-2.35-.01-4.26,1.88-4.28,4.23h0l-.07,36.07c-.01,2.35,1.88,4.26,4.23,4.28h0l29.82,.06c2.35,.01,4.26-1.88,4.28-4.23v-7.59"/>
        <path class="cls-39" d="M230.1,229.91c-.52,0-.94-.4-.95-.92l-.11-16.73c-.07-4.25,3.15-4.42,7.4-4.5,.52-.07,1,.28,1.07,.8,.07,.52-.28,1-.8,1.07h-.23c-3.23,.07-5.79,2.75-5.72,5.98,0,0,0,.02,0,.02l.26,13.36c-.04,.49-.43,.88-.92,.92Z"/>
        <ellipse class="cls-39" cx="231.17" cy="226.13" rx="1.13" ry="1.42" transform="translate(-4.3 4.48) rotate(-1.1)"/>
        <circle class="cls-39" cx="232.47" cy="224.11" r=".3"/>
        <circle class="cls-30" cx="232.06" cy="228.38" r=".36"/>
        <circle class="cls-39" cx="233.29" cy="226.37" r=".56"/>
        <circle class="cls-39" cx="230.96" cy="219.97" r=".53"/>
        <circle class="cls-39" cx="231.4" cy="222.62" r=".15"/>
        <circle class="cls-39" cx="232.47" cy="217.27" r=".47"/>
        <circle class="cls-39" cx="232.29" cy="214.58" r=".3"/>
        <circle class="cls-39" cx="232.72" cy="211.34" r=".79"/>
        <path class="cls-49" d="M262.75,253.07h0l-29.85-.07c-1.34,0-2.63-.53-3.57-1.49-.93-.95-1.45-2.22-1.44-3.55l.07-36.08c0-2.76,2.24-5,5-5h0l29.83,.06c2.76,0,5,2.24,5,5v8.57h0l-.06,27.54c0,1.34-.54,2.62-1.49,3.56-.92,.93-2.18,1.46-3.49,1.46Zm-29.79-44.68c-1.92,0-3.47,1.55-3.49,3.47l-.06,36.14c-.02,1.92,1.51,3.49,3.43,3.51,.01,0,.03,0,.04,0l29.85,.06c.93,0,1.82-.35,2.48-1,.65-.65,1.01-1.54,1-2.46l.08-36.13c0-1.93-1.56-3.49-3.49-3.5l-29.84-.09Z"/>
        <path class="cls-47" d="M262.71,236h0c.66,0,1.19,.52,1.2,1.18,0,0,0,0,0,.01l.05,9.2c0,.66-.53,1.19-1.19,1.2h0c-.66,0-1.19-.52-1.2-1.18,0,0,0,0,0-.01l-.05-9.2c0-.66,.52-1.19,1.18-1.2,0,0,0,0,.01,0Z"/>
        <path class="cls-16" d="M231.7,226.78h0c.51,0,.92,.41,.92,.92v7.07c0,.5-.41,.91-.91,.92h0c-.51,0-.92-.4-.93-.91h0v-7.07c0-.51,.41-.92,.92-.93Z"/>
        <path class="cls-56" d="M71.73,275.23v8.18l15.11,5.29s3.39,13,16.45,13,15.27-17.42,15.27-17.42l-46.83-9.05Z"/>
        <rect class="cls-16" x="55.07" y="233.46" width="9.07" height="72.78" transform="translate(-215.21 240.71) rotate(-71.49)"/>
        <path class="cls-49" d="M92.69,286.79c-.12,0-.24-.02-.35-.06l-69-23.1c-.28-.09-.5-.29-.63-.55-.13-.26-.16-.57-.06-.85l2.88-8.6c.19-.57,.8-.88,1.38-.69,0,0,0,0,.01,0l69.04,23.06c.27,.09,.5,.29,.63,.55,.13,.26,.15,.56,.06,.84l-2.92,8.61c-.13,.46-.56,.79-1.04,.79Zm-67.62-24.9l66.89,22.4,2.18-6.51-66.92-22.4-2.15,6.51Z"/>
        <circle class="cls-16" cx="15.5" cy="255.17" r="14.43"/>
        <path class="cls-49" d="M15.53,270.7C6.95,270.7,0,263.76,0,255.19c0-8.57,6.94-15.52,15.51-15.53s15.52,6.94,15.53,15.51c0,5.66-3.07,10.86-8.02,13.6-2.29,1.26-4.87,1.93-7.49,1.93Zm-.05-28.87c-5.93,.02-11.15,3.95-12.79,9.65-2.04,7.07,2.03,14.46,9.1,16.51,3.41,.98,7.07,.57,10.17-1.15,6.44-3.56,8.78-11.67,5.23-18.11-1.71-3.1-4.58-5.39-7.99-6.37-1.21-.35-2.46-.53-3.72-.53h0Z"/>
        <circle class="cls-14" cx="15.5" cy="255.17" r="7.98"/>
        <path class="cls-49" d="M15.52,264.25c-5.02,.01-9.1-4.05-9.11-9.07-.01-5.02,4.05-9.1,9.07-9.11,5.02-.01,9.1,4.05,9.11,9.07,0,3.32-1.79,6.38-4.7,7.98-1.34,.74-2.84,1.13-4.37,1.13Zm0-16c-1.16,0-2.3,.3-3.31,.86-3.32,1.84-4.53,6.02-2.7,9.35,1.84,3.32,6.03,4.53,9.35,2.69,3.32-1.84,4.53-6.03,2.69-9.35-.88-1.59-2.36-2.77-4.11-3.28-.64-.17-1.29-.25-1.95-.23l.03-.04Z"/>
        <circle class="cls-56" cx="123.5" cy="210.16" r="12.18"/>
        <rect class="cls-16" x="76.12" y="236.07" width="72.78" height="9.07" transform="translate(-147.84 293.2) rotate(-76.36)"/>
        <path class="cls-58" d="M122.63,217.83l-1.1,4.52c-3.11,.02-6.15-.97-8.65-2.82l.93-3.85c2.63,1.65,5.73,2.4,8.82,2.15Z"/>
        <path class="cls-49" d="M108.34,278.14c-.09,.01-.17,.01-.26,0l-8.81-2.14c-.59-.14-.95-.72-.82-1.31,0,0,0-.01,0-.02l17.16-70.73c.07-.29,.25-.53,.5-.68,.25-.15,.55-.2,.83-.13l8.82,2.14c.59,.14,.95,.74,.81,1.33,0,0,0,0,0,0l-17.17,70.72c-.12,.5-.56,.85-1.07,.85v-.03Zm-7.48-4.06l6.67,1.62,16.65-68.58-6.68-1.62-16.64,68.58Z"/>
        <circle class="cls-16" cx="121.63" cy="203.06" r="14.43" transform="translate(-89.55 309.99) rotate(-85.93)"/>
        <path class="cls-49" d="M121.65,218.59c-8.57,0-15.52-6.94-15.53-15.51s6.94-15.52,15.51-15.53c8.57,0,15.52,6.94,15.53,15.51,0,5.66-3.07,10.86-8.02,13.6-2.29,1.26-4.87,1.93-7.49,1.93Zm0-28.86c-7.36-.02-13.34,5.92-13.36,13.28,0,2.27,.57,4.51,1.67,6.5,3.56,6.44,11.67,8.78,18.12,5.22,6.44-3.56,8.78-11.67,5.22-18.12-2.35-4.25-6.83-6.89-11.69-6.88h.05Z"/>
        <circle class="cls-14" cx="121.63" cy="203.06" r="7.98"/>
        <path class="cls-49" d="M121.64,212.14c-5.01,.01-9.09-4.05-9.1-9.06-.01-5.01,4.05-9.09,9.06-9.1,3.31,0,6.37,1.79,7.97,4.69h0c2.43,4.38,.85,9.9-3.53,12.33-1.35,.75-2.86,1.14-4.4,1.14Zm0-16c-3.8-.01-6.89,3.06-6.9,6.86s3.06,6.89,6.86,6.9c3.8,.01,6.89-3.06,6.9-6.86,0-1.17-.29-2.33-.86-3.35h0c-1.23-2.17-3.53-3.52-6.03-3.51l.03-.04Z"/>
        <circle class="cls-16" cx="104.12" cy="283.21" r="14.43"/>
        <path class="cls-49" d="M104.15,298.74c-8.58,0-15.54-6.94-15.55-15.51,0-8.58,6.94-15.54,15.51-15.55,5.66,0,10.87,3.06,13.61,8.01h0c4.15,7.5,1.44,16.95-6.07,21.11-2.3,1.27-4.88,1.94-7.5,1.94Zm0-28.87c-2.25,0-4.46,.57-6.43,1.67-6.44,3.56-8.78,11.67-5.21,18.12,3.56,6.44,11.67,8.78,18.12,5.21,6.44-3.56,8.77-11.67,5.22-18.11-2.36-4.25-6.83-6.88-11.69-6.89Z"/>
        <circle class="cls-14" cx="104.12" cy="283.21" r="7.98"/>
        <path class="cls-49" d="M104.13,292.29c-5.01,0-9.08-4.06-9.09-9.07s4.06-9.08,9.07-9.09c3.31,0,6.36,1.79,7.96,4.69h0c2.42,4.39,.83,9.91-3.56,12.34-1.34,.74-2.85,1.13-4.38,1.13Zm0-16c-3.8-.01-6.89,3.06-6.9,6.86-.01,3.8,3.06,6.89,6.86,6.9,3.8,.01,6.89-3.06,6.9-6.86,0-1.17-.29-2.33-.86-3.35h0c-.88-1.6-2.36-2.78-4.12-3.28-.62-.16-1.26-.24-1.9-.23l.02-.04Z"/>
        <path class="cls-49" d="M520.51,311.3c-.65,0-1.17-.52-1.17-1.17v-30.65c0-.65,.52-1.17,1.17-1.17s1.17,.52,1.17,1.17v30.65c0,.65-.52,1.17-1.17,1.17h0Z"/>
        <path class="cls-49" d="M520.51,273.51c-.65,0-1.17-.52-1.17-1.17v-5.8c0-.65,.52-1.17,1.17-1.17s1.17,.52,1.17,1.17v5.8c0,.65-.52,1.17-1.17,1.17h0Z"/>
        <path class="cls-60" d="M538.82,152.62c0,19.29-14.61,34.93-32.68,35h-1.33c-17.68-.07-32.1-15.12-32.65-34l-.31-14.83c1.42-5.57,5.44-6.1,10.47-7.16h46c5,1.05,9.05,.09,10.48,5.7l.02,15.29Z"/>
        <path class="cls-40" d="M481.96,139.28h47.82v10.57c0,13.21-10.7,23.91-23.91,23.91h0c-13.21,0-23.91-10.7-23.91-23.91h0v-10.57Z"/>
        <path class="cls-35" d="M510.79,173.21c-12.92,2.73-25.61-5.53-28.34-18.45,0,0,0,0,0,0-.35-1.62-.52-3.27-.52-4.92v-10.56h9.93v10.56c0,11.28,7.9,21.02,18.93,23.37Z"/>
        <rect class="cls-16" x="490.07" y="139.28" width="39.66" height="14.51"/>
        <rect class="cls-7" x="490.07" y="139.28" width="39.66" height="6.05"/>
        <path class="cls-11" d="M527.54,155.37v2.78c0,8.41-6.81,14-15.22,14-2.65,0-5.15,1.84-7.32,.63l-.11-.92c-.18-.97-.27-1.95-.28-2.93,.02-8.55,6.96-15.47,15.51-15.45,2.56,0,5.08,.64,7.33,1.86l.09,.03Z"/>
        <path class="cls-45" d="M515.13,172.05c-.91,.16-1.83,.24-2.76,.24-2.66,0-5.15,1.85-7.32,.63l-.09-.92c-.18-.97-.28-1.95-.28-2.93,0-.97,.09-1.94,.27-2.9,1.91,4.17,5.65,4.83,10.18,5.88Z"/>
        <path class="cls-49" d="M504.96,173.25c-.39,0-.72-.28-.79-.66-1.68-8.83,4.11-17.36,12.95-19.04,3.69-.7,7.5-.11,10.8,1.68,.38,.24,.48,.74,.24,1.12-.22,.34-.65,.46-1.01,.3-7.12-3.86-16.03-1.21-19.89,5.91-1.61,2.97-2.14,6.41-1.51,9.73,.09,.43-.18,.85-.61,.93,0,0-.02,0-.03,0l-.15,.02Z"/>
        <path class="cls-29" d="M508.63,161.49c-.08,0-.17-.03-.23-.08-.18-.13-.22-.38-.09-.56,0,0,0,0,0,0,2.55-3.4,6.42-5.56,10.65-5.94,.22-.05,.43,.09,.48,.3,.05,.22-.09,.43-.3,.48-.03,0-.07,.01-.1,0-4,.37-7.66,2.41-10.07,5.63-.07,.11-.2,.17-.33,.16Z"/>
        <ellipse class="cls-29" cx="510.21" cy="160.58" rx="1.52" ry=".97" transform="translate(86.48 487) rotate(-55.08)"/>
        <circle class="cls-29" cx="512.86" cy="159.8" r=".49"/>
        <path class="cls-29" d="M511.87,161.94c.27,0,.49,.22,.49,.49s-.22,.49-.49,.49-.49-.22-.49-.49,.22-.49,.49-.49Z"/>
        <path class="cls-49" d="M528.46,155.06h-38.39c-.7,0-1.27-.57-1.27-1.27v-13.89c.06-.7,.68-1.21,1.38-1.15,.61,.05,1.1,.54,1.15,1.15v12.62h37.13c.7,0,1.27,.57,1.27,1.27,0,.7-.57,1.27-1.27,1.27h0Z"/>
        <path class="cls-49" d="M506.89,174.94h-2.12c-13.26-.02-24.01-10.74-24.05-24v-9.42c0-1.88,1.53-3.41,3.41-3.41h43.39c1.88,0,3.4,1.52,3.41,3.4v9.41c0,13.28-10.76,24.05-24.04,24.06h0v-.04Zm-22.75-34.45c-.26,0-.51,.11-.7,.29-.18,.19-.29,.44-.29,.7v9.42c.02,11.93,9.69,21.6,21.62,21.61h2.12c11.92,.02,21.6-9.64,21.62-21.56,0-.02,0-.05,0-.07v-9.4c0-.55-.45-1-1-1h-43.37Z"/>
        <path class="cls-16" d="M545.89,133.71h-2.72c-.97,.02-1.82-.67-2-1.63l-8.21-42.78c-.22-1.08,.49-2.14,1.57-2.35,.14-.03,.28-.04,.43-.04h2.72c.97-.02,1.82,.67,2,1.63l8.26,42.78c.22,1.08-.49,2.14-1.57,2.35-.16,.03-.32,.04-.48,.04Z"/>
        <path class="cls-22" d="M534.96,132.44h0c-.97,.02-1.82-.67-2-1.63l-8.27-42.81c-.22-1.08,.49-2.14,1.57-2.35,.14-.03,.28-.04,.43-.04h0c.97-.02,1.82,.67,2,1.63l8.26,42.78c.23,1.08-.46,2.14-1.54,2.38-.15,.03-.3,.05-.45,.04Z"/>
        <path class="cls-52" d="M535.54,82.54c-15.24,0-27.59,12.34-27.6,27.58,0,15.24,12.34,27.59,27.58,27.6s27.59-12.34,27.6-27.58v-.02c0-15.23-12.35-27.58-27.58-27.58h0Zm0,47.7c-11.12,0-20.13-9-20.14-20.12,0-11.12,9-20.13,20.12-20.14s20.13,9,20.14,20.12v.02c0,11.11-9.01,20.12-20.12,20.12Z"/>
        <path class="cls-31" d="M563.12,110.12v1.6c-.87-15.21-13.9-26.83-29.11-25.96-13.99,.8-25.16,11.97-25.96,25.96,0-.53-.06-1.07-.06-1.6,0-15.24,12.34-27.6,27.57-27.61,15.24,0,27.6,12.34,27.61,27.57v.03h-.05Z"/>
        <path class="cls-49" d="M535.77,138.56c-15.93,0-28.84-12.91-28.84-28.84,0-15.93,12.91-28.84,28.84-28.84,15.93,0,28.84,12.91,28.84,28.84-.02,15.92-12.92,28.82-28.84,28.84Zm0-55.18c-14.55,0-26.34,11.78-26.35,26.33,0,14.55,11.78,26.34,26.33,26.35,14.55,0,26.34-11.78,26.35-26.33h0c-.02-14.55-11.79-26.33-26.33-26.35Z"/>
        <path class="cls-49" d="M535.77,131.09c-11.81,0-21.38-9.56-21.39-21.37,0-11.81,9.56-21.38,21.37-21.39,11.81,0,21.38,9.56,21.39,21.37v.02c-.02,11.8-9.57,21.35-21.37,21.37Zm0-40.24c-10.42,0-18.87,8.45-18.87,18.87s8.45,18.87,18.87,18.87,18.87-8.45,18.87-18.87h0c0-10.42-8.45-18.86-18.87-18.87Z"/>
        <path class="cls-16" d="M485.81,133.71h-2.72c-.97,.02-1.82-.67-2-1.63l-8.23-42.78c-.22-1.08,.49-2.14,1.57-2.35,.14-.03,.28-.04,.43-.04h2.71c.97-.02,1.82,.67,2,1.63l8.25,42.78c.22,1.08-.49,2.14-1.57,2.35-.14,.03-.29,.04-.44,.04Z"/>
        <path class="cls-22" d="M474.84,132.44h0c-.97,.02-1.82-.67-2-1.63l-8.23-42.81c-.22-1.08,.49-2.14,1.57-2.35,.14-.03,.28-.04,.43-.04h0c.97-.02,1.82,.67,2,1.63l8.25,42.78c.23,1.08-.45,2.14-1.53,2.38-.16,.03-.32,.05-.49,.04Z"/>
        <path class="cls-52" d="M475.45,82.54c-15.24,0-27.59,12.35-27.59,27.59s12.35,27.59,27.59,27.59,27.59-12.35,27.59-27.59h0c0-15.24-12.35-27.59-27.58-27.59h-.01Zm0,47.7c-11.12,0-20.13-9-20.14-20.12s9-20.13,20.12-20.14c11.12,0,20.13,9,20.14,20.12v.02c0,11.11-9.01,20.12-20.12,20.12Z"/>
        <path class="cls-31" d="M503.04,110.12c0,.53,0,1.07-.06,1.6-.92-15.2-13.99-26.79-29.19-25.87-13.93,.84-25.03,11.95-25.87,25.87,0-.53-.06-1.07-.06-1.6,0-15.24,12.34-27.6,27.57-27.61,15.24,0,27.6,12.34,27.61,27.57v.03Z"/>
        <path class="cls-49" d="M475.68,138.56c-15.93,0-28.84-12.91-28.84-28.84s12.91-28.84,28.84-28.84,28.84,12.91,28.84,28.84h0c-.02,15.92-12.92,28.82-28.84,28.84Zm0-55.18c-14.55,0-26.34,11.79-26.34,26.34s11.79,26.34,26.34,26.34,26.34-11.79,26.34-26.34c-.02-14.54-11.8-26.32-26.34-26.34Z"/>
        <path class="cls-49" d="M475.68,131.09c-11.81,0-21.38-9.57-21.38-21.38,0-11.81,9.57-21.38,21.38-21.38,11.81,0,21.38,9.57,21.38,21.38h0c-.02,11.81-9.58,21.37-21.38,21.38Zm0-40.24c-10.42,0-18.87,8.45-18.87,18.87s8.45,18.87,18.87,18.87,18.87-8.45,18.87-18.87h0c-.01-10.42-8.45-18.86-18.87-18.87Z"/>
        <ellipse class="cls-16" cx="481.17" cy="176.24" rx="2.89" ry="1.66" transform="translate(162.48 577.52) rotate(-71.66)"/>
        <circle class="cls-20" cx="486.41" cy="177.86" r=".93"/>
        <path class="cls-20" d="M483.57,178.8c.4,0,.72,.32,.72,.72s-.32,.72-.72,.72-.72-.32-.72-.72,.32-.72,.72-.72Z"/>
        <circle class="cls-20" cx="484.52" cy="172.87" r=".95"/>
        <path class="cls-49" d="M543.4,180.22c-.33,0-.65-.14-.87-.39l-4.57-5.05c-.41-.5-.33-1.24,.17-1.65,.47-.38,1.14-.34,1.57,.09l4.53,5.05c.43,.48,.39,1.22-.09,1.65-.2,.18-.47,.29-.74,.3Z"/>
        <path class="cls-49" d="M555.96,166.12c-.33,0-.65-.14-.87-.39l-4.53-5c-.41-.5-.33-1.24,.17-1.65,.47-.38,1.14-.34,1.57,.09l4.53,5c.43,.48,.39,1.22-.09,1.65-.21,.19-.49,.3-.78,.3Z"/>
        <path class="cls-49" d="M525.22,189.2c-.49,0-.94-.31-1.1-.78l-2.26-6.42c-.27-.59,0-1.28,.58-1.55s1.28,0,1.55,.58c.03,.06,.05,.13,.07,.19l2.26,6.39c.22,.6-.09,1.27-.7,1.49,0,0,0,0-.01,0-.12,.05-.26,.08-.39,.09Z"/>
        <path class="cls-49" d="M533.45,187.45c-.49,0-.94-.31-1.1-.78l-1.46-4.14c-.21-.61,.11-1.28,.72-1.49,.61-.21,1.28,.11,1.49,.72h0l1.46,4.13c.21,.61-.11,1.28-.72,1.49,0,0,0,0,0,0-.12,.05-.26,.07-.39,.07Z"/>
        <path class="cls-49" d="M534.09,169.55c-.42,0-.81-.25-1-.62l-1.66-3.08c-.43-.49-.38-1.23,.11-1.65,.49-.43,1.23-.38,1.65,.11,.11,.13,.19,.27,.24,.43l1.66,3.09c.31,.56,.1,1.27-.46,1.57,0,0,0,0,0,0-.16,.09-.35,.13-.53,.14Z"/>
        <path class="cls-49" d="M545.33,166.94c-.39,.02-.77-.16-1-.48l-2.08-2.89c-.34-.55-.17-1.27,.37-1.61,.5-.31,1.14-.21,1.52,.24l2.09,2.9c.37,.52,.25,1.24-.27,1.62-.18,.13-.4,.21-.63,.22Z"/>
        <path class="cls-49" d="M467.27,180.22c-.29,0-.56-.11-.78-.3-.48-.43-.52-1.17-.09-1.65l4.53-5.05c.41-.5,1.14-.58,1.65-.17,.5,.41,.58,1.14,.17,1.65-.03,.03-.05,.06-.08,.09l-4.53,5.05c-.22,.25-.54,.39-.87,.39Z"/>
        <path class="cls-49" d="M454.71,166.12c-.29,0-.57-.11-.78-.3-.48-.43-.52-1.17-.09-1.65l4.53-5c.41-.5,1.14-.58,1.65-.17,.5,.41,.58,1.14,.17,1.65-.03,.03-.05,.06-.08,.09l-4.53,5c-.22,.25-.54,.39-.87,.39Z"/>
        <path class="cls-49" d="M485.45,189.2c-.13,0-.27-.02-.39-.07-.61-.21-.93-.87-.71-1.48,0,0,0,0,0-.01l2.26-6.39c.16-.63,.8-1.01,1.42-.85s1.01,.8,.85,1.42c-.02,.07-.04,.13-.07,.19l-2.26,6.4c-.16,.47-.61,.78-1.1,.78Z"/>
        <path class="cls-49" d="M477.22,187.45c-.13,0-.27-.02-.39-.07-.61-.21-.93-.88-.72-1.49,0,0,0,0,0,0l1.46-4.13c.21-.61,.88-.93,1.49-.72,.61,.21,.93,.88,.72,1.49l-1.46,4.14c-.16,.47-.61,.78-1.1,.78Z"/>
        <path class="cls-49" d="M476.58,169.55c-.19,0-.38-.05-.55-.14-.56-.3-.78-1.01-.48-1.57,0,0,0,0,0,0l1.66-3.09c.26-.59,.95-.86,1.54-.61,.59,.26,.86,.95,.61,1.54-.03,.06-.06,.12-.1,.18l-1.66,3.08c-.2,.38-.6,.62-1.03,.62Z"/>
        <path class="cls-49" d="M465.34,166.94c-.24,0-.48-.08-.68-.22-.52-.38-.64-1.1-.27-1.62l2.08-2.9c.38-.52,1.11-.64,1.64-.26,.52,.38,.64,1.11,.26,1.63h0l-2.08,2.89c-.22,.3-.57,.48-.95,.48Z"/>
        <path class="cls-49" d="M473.18,156.66c-.65-.02-1.16-.56-1.14-1.2,0-.18,.05-.36,.14-.52l1.66-3.09c.31-.57,1.02-.78,1.58-.47,.57,.31,.78,1.02,.48,1.58h0l-1.66,3.09c-.21,.39-.62,.62-1.06,.61Z"/>
        <path class="cls-49" d="M461.96,154.06c-.24,0-.48-.08-.68-.22-.52-.37-.65-1.09-.28-1.62,0,0,0,0,0-.01l2.08-2.89c.37-.52,1.09-.65,1.62-.28,0,0,0,0,.01,0,.52,.38,.64,1.1,.27,1.63l-2.08,2.89c-.22,.31-.57,.49-.95,.49Z"/>
        <path class="cls-49" d="M542.07,155.08c-.42,0-.8-.24-1-.61l-1.66-3.09c-.36-.54-.21-1.27,.33-1.62,.54-.36,1.27-.21,1.62,.33,.04,.06,.07,.12,.1,.18l1.67,3.09c.3,.57,.09,1.28-.48,1.58-.16,.09-.34,.13-.52,.14h-.06Z"/>
        <path class="cls-49" d="M553.31,152.48c-.39,.02-.77-.17-1-.49l-2.08-2.89c-.4-.5-.32-1.24,.18-1.64,.5-.4,1.24-.32,1.64,.18,.03,.03,.05,.07,.07,.1l2.08,2.89c.37,.52,.25,1.25-.27,1.63-.18,.14-.4,.21-.63,.22Z"/>
        <circle class="cls-3" cx="638.64" cy="220.25" r="8.47"/>
        <path class="cls-16" d="M647.11,220.25c0,4.68-3.79,8.47-8.47,8.47s-8.47-3.79-8.47-8.47,3.79,1.05,8.47,1.05,8.47-5.73,8.47-1.05Z"/>
        <path class="cls-49" d="M638.64,229.93c-5.35,0-9.69-4.34-9.69-9.69s4.34-9.69,9.69-9.69c5.35,0,9.69,4.34,9.69,9.69h0c0,5.36-4.34,9.69-9.69,9.69Zm0-16.93c-4,0-7.25,3.25-7.25,7.25s3.25,7.25,7.25,7.25,7.25-3.25,7.25-7.25h0c0-4-3.25-7.24-7.25-7.25Z"/>
        <circle class="cls-3" cx="598.06" cy="220.25" r="8.47"/>
        <path class="cls-16" d="M606.53,220.25c0,4.68-3.79,8.47-8.47,8.47s-8.47-3.79-8.47-8.47,3.79,1.05,8.47,1.05,8.47-5.73,8.47-1.05Z"/>
        <path class="cls-49" d="M598.06,229.93c-5.35,0-9.69-4.33-9.7-9.68,0-5.35,4.33-9.69,9.68-9.7s9.69,4.33,9.7,9.68v.02c-.01,5.34-4.34,9.67-9.68,9.68Zm0-16.93c-4,0-7.25,3.25-7.25,7.25s3.25,7.25,7.25,7.25,7.25-3.25,7.25-7.25h0c0-4-3.25-7.24-7.25-7.25Z"/>
      </g>
    </g>
  </g>
</svg>